<svg xmlns="http://www.w3.org/2000/svg" xmlns:xlink="http://www.w3.org/1999/xlink" width="1080" zoomAndPan="magnify" viewBox="0 0 810 809.999993" height="1080" preserveAspectRatio="xMidYMid meet" version="1.0"><path fill="#b58934" d="M 412.269531 313.929688 C 413.089844 314.601562 414.101562 314.941406 415.089844 314.941406 C 416.367188 314.941406 417.644531 314.386719 418.511719 313.324219 L 428.871094 300.746094 C 429.980469 299.421875 430.171875 297.566406 429.449219 296 C 428.703125 294.457031 427.089844 293.253906 425.378906 293.492188 C 424.824219 293.46875 412.171875 293.492188 409.328125 283.445312 C 409.28125 283.277344 409.160156 283.179688 409.089844 283.011719 C 408.96875 282.746094 408.847656 282.457031 408.679688 282.214844 C 408.511719 281.976562 408.339844 281.78125 408.148438 281.589844 C 407.929688 281.371094 407.738281 281.179688 407.472656 281.011719 C 407.234375 280.867188 406.96875 280.746094 406.726562 280.625 C 406.558594 280.554688 406.4375 280.433594 406.246094 280.386719 C 406.125 280.359375 406.027344 280.386719 405.90625 280.359375 C 405.617188 280.3125 405.328125 280.3125 405.039062 280.3125 C 404.75 280.3125 404.460938 280.3125 404.171875 280.359375 C 404.050781 280.386719 403.929688 280.359375 403.835938 280.386719 C 403.640625 280.433594 403.523438 280.554688 403.351562 280.625 C 403.089844 280.722656 402.847656 280.867188 402.605469 281.011719 C 402.339844 281.179688 402.148438 281.371094 401.929688 281.589844 C 401.738281 281.78125 401.570312 281.976562 401.425781 282.191406 C 401.257812 282.457031 401.113281 282.746094 400.992188 283.011719 C 400.917969 283.15625 400.796875 283.277344 400.75 283.445312 C 397.90625 293.519531 385.304688 293.542969 384.726562 293.492188 C 382.992188 293.589844 381.398438 294.433594 380.628906 296 C 379.882812 297.566406 380.097656 299.421875 381.207031 300.746094 L 391.570312 313.324219 C 392.4375 314.386719 393.714844 314.941406 394.992188 314.941406 C 395.980469 314.941406 396.992188 314.601562 397.808594 313.929688 C 399.714844 312.363281 399.980469 309.542969 398.414062 307.664062 L 393.039062 301.15625 C 397.230469 299.925781 401.691406 297.636719 405.015625 293.808594 C 408.339844 297.636719 412.796875 299.929688 416.992188 301.15625 L 411.617188 307.664062 C 410.050781 309.542969 410.316406 312.363281 412.21875 313.929688 Z M 412.269531 313.929688 " fill-opacity="1" fill-rule="nonzero"/><path fill="#b58934" d="M 395.519531 327.183594 L 333.929688 295.832031 C 331.734375 294.722656 329.0625 295.589844 327.953125 297.78125 L 287.011719 378.195312 C 282.289062 387.472656 281.445312 398.050781 284.675781 407.957031 C 287.421875 416.4375 292.890625 423.546875 300.242188 428.390625 L 272.648438 482.609375 C 258.214844 477.1875 241.394531 480.101562 229.804688 490.390625 C 228.695312 491.378906 228.167969 492.824219 228.359375 494.273438 C 228.550781 495.71875 229.441406 496.996094 230.746094 497.695312 L 293.035156 529.382812 C 293.664062 529.695312 294.359375 529.863281 295.058594 529.863281 C 295.808594 529.863281 296.53125 529.671875 297.203125 529.308594 C 298.480469 528.609375 299.347656 527.308594 299.492188 525.839844 C 301.035156 510.007812 293.6875 495.113281 280.601562 486.609375 L 308.191406 432.414062 C 312.554688 434.027344 317.179688 434.894531 321.785156 434.894531 C 336.554688 434.894531 349.882812 426.726562 356.554688 413.570312 L 397.496094 333.15625 C 398.050781 332.121094 398.125 330.894531 397.761719 329.761719 C 397.402344 328.652344 396.605469 327.710938 395.546875 327.183594 Z M 290.601562 518.152344 L 241.25 493.019531 C 250.695312 487.597656 262.769531 487.164062 272.722656 492.199219 L 272.746094 492.199219 C 282.890625 497.378906 289.445312 507.140625 290.601562 518.128906 Z M 348.605469 409.546875 C 343.449219 419.714844 333.15625 426.003906 321.734375 426.003906 C 316.964844 426.003906 312.386719 424.894531 308.097656 422.726562 C 300.941406 419.066406 295.613281 412.847656 293.132812 405.207031 C 290.652344 397.570312 291.277344 389.402344 294.941406 382.21875 L 303.902344 364.652344 L 378.21875 351.398438 Z M 383.28125 341.445312 L 308.964844 354.699219 L 333.878906 305.757812 L 387.546875 333.085938 Z M 383.28125 341.445312 " fill-opacity="1" fill-rule="nonzero"/><path fill="#b58934" d="M 312.84375 383.617188 C 313.878906 384.148438 315.011719 384.414062 316.144531 384.414062 C 318.917969 384.414062 321.421875 382.894531 322.675781 380.414062 C 324.507812 376.820312 323.0625 372.414062 319.496094 370.582031 C 318.457031 370.050781 317.300781 369.785156 316.167969 369.785156 C 313.398438 369.785156 310.890625 371.328125 309.640625 373.785156 C 307.808594 377.375 309.253906 381.785156 312.84375 383.617188 Z M 312.601562 375.304688 C 313.300781 373.929688 314.699219 373.136719 316.144531 373.136719 C 316.746094 373.136719 317.375 373.28125 317.953125 373.570312 C 319.90625 374.582031 320.699219 376.964844 319.6875 378.917969 C 318.988281 380.292969 317.589844 381.085938 316.144531 381.085938 C 315.542969 381.085938 314.917969 380.941406 314.339844 380.628906 C 312.386719 379.617188 311.589844 377.230469 312.601562 375.28125 Z M 312.601562 375.304688 " fill-opacity="1" fill-rule="nonzero"/><path fill="#b58934" d="M 317.207031 400.390625 C 315.710938 403.351562 316.867188 406.96875 319.832031 408.460938 C 320.675781 408.894531 321.617188 409.113281 322.554688 409.113281 C 324.820312 409.113281 326.890625 407.859375 327.929688 405.835938 C 329.421875 402.894531 328.242188 399.257812 325.300781 397.738281 C 324.457031 397.304688 323.519531 397.085938 322.578125 397.085938 C 320.3125 397.085938 318.242188 398.339844 317.230469 400.363281 Z M 324.941406 404.339844 C 324.484375 405.28125 323.519531 405.785156 322.554688 405.785156 C 322.144531 405.785156 321.734375 405.691406 321.351562 405.496094 C 320.023438 404.847656 319.496094 403.234375 320.167969 401.90625 C 320.628906 400.992188 321.589844 400.4375 322.554688 400.4375 C 322.964844 400.4375 323.375 400.535156 323.761719 400.726562 C 325.085938 401.402344 325.589844 403.015625 324.941406 404.339844 Z M 324.941406 404.339844 " fill-opacity="1" fill-rule="nonzero"/><path fill="#b58934" d="M 341.90625 387.808594 C 342.941406 388.339844 344.074219 388.605469 345.230469 388.605469 C 348 388.605469 350.507812 387.0625 351.738281 384.605469 C 353.566406 381.015625 352.121094 376.605469 348.53125 374.773438 C 347.496094 374.242188 346.363281 373.980469 345.207031 373.980469 C 342.433594 373.980469 339.929688 375.519531 338.675781 377.980469 C 336.84375 381.570312 338.265625 386.003906 341.855469 387.835938 Z M 341.6875 379.472656 C 342.386719 378.097656 343.785156 377.304688 345.230469 377.304688 C 345.832031 377.304688 346.460938 377.449219 347.039062 377.738281 C 349.015625 378.726562 349.785156 381.136719 348.773438 383.085938 C 348.074219 384.460938 346.675781 385.257812 345.230469 385.257812 C 344.628906 385.257812 344 385.113281 343.421875 384.820312 C 341.472656 383.808594 340.675781 381.425781 341.6875 379.472656 Z M 341.6875 379.472656 " fill-opacity="1" fill-rule="nonzero"/><path fill="#b58934" d="M 580.324219 490.390625 C 568.757812 480.101562 551.914062 477.1875 537.503906 482.609375 L 509.886719 428.390625 C 517.210938 423.546875 522.683594 416.4375 525.429688 407.957031 C 528.660156 398.050781 527.816406 387.472656 523.09375 378.195312 L 482.152344 297.785156 C 481.042969 295.589844 478.34375 294.722656 476.175781 295.832031 L 414.582031 327.183594 C 413.546875 327.734375 412.75 328.652344 412.367188 329.761719 C 412.003906 330.894531 412.101562 332.121094 412.628906 333.15625 L 453.570312 413.570312 C 460.269531 426.726562 473.597656 434.898438 488.367188 434.898438 C 492.996094 434.898438 497.597656 434.027344 501.957031 432.414062 L 529.550781 486.609375 C 516.464844 495.089844 509.089844 509.984375 510.65625 525.839844 C 510.800781 527.308594 511.644531 528.609375 512.945312 529.308594 C 513.621094 529.671875 514.34375 529.863281 515.09375 529.863281 C 515.839844 529.863281 516.464844 529.695312 517.117188 529.382812 L 579.40625 497.695312 C 580.707031 497.019531 581.625 495.742188 581.792969 494.273438 C 581.984375 492.824219 581.429688 491.378906 580.347656 490.390625 Z M 422.605469 333.085938 L 476.269531 305.757812 L 501.1875 354.699219 L 426.847656 341.449219 L 422.582031 333.085938 Z M 502.007812 422.726562 C 497.71875 424.894531 493.140625 426.003906 488.367188 426.003906 C 476.96875 426.003906 466.679688 419.714844 461.5 409.546875 L 431.882812 351.398438 L 506.222656 364.652344 L 515.164062 382.21875 C 518.804688 389.402344 519.453125 397.570312 516.972656 405.207031 C 514.488281 412.871094 509.164062 419.0625 502.007812 422.726562 Z M 519.527344 518.152344 C 520.683594 507.164062 527.238281 497.40625 537.40625 492.222656 C 542.105469 489.839844 547.117188 488.632812 552.347656 488.632812 C 558.175781 488.632812 563.863281 490.175781 568.875 493.042969 L 519.527344 518.175781 Z M 519.527344 518.152344 " fill-opacity="1" fill-rule="nonzero"/><path fill="#b58934" d="M 493.957031 369.785156 C 492.800781 369.785156 491.667969 370.050781 490.632812 370.582031 C 488.898438 371.472656 487.597656 372.964844 486.996094 374.820312 C 486.390625 376.675781 486.535156 378.652344 487.429688 380.414062 C 488.679688 382.871094 491.164062 384.414062 493.933594 384.414062 C 495.089844 384.414062 496.222656 384.148438 497.261719 383.617188 C 498.996094 382.726562 500.296875 381.230469 500.898438 379.375 C 501.5 377.519531 501.355469 375.519531 500.464844 373.785156 C 499.210938 371.328125 496.707031 369.785156 493.957031 369.785156 Z M 495.765625 380.652344 C 495.1875 380.964844 494.5625 381.113281 493.957031 381.113281 C 492.511719 381.113281 491.113281 380.316406 490.417969 378.941406 C 489.40625 376.964844 490.199219 374.582031 492.152344 373.59375 C 492.730469 373.304688 493.355469 373.160156 493.957031 373.160156 C 495.40625 373.160156 496.800781 373.953125 497.5 375.328125 C 498.488281 377.28125 497.71875 379.664062 495.765625 380.675781 Z M 495.765625 380.652344 " fill-opacity="1" fill-rule="nonzero"/><path fill="#b58934" d="M 487.574219 397.113281 C 486.632812 397.113281 485.691406 397.328125 484.851562 397.761719 C 483.402344 398.484375 482.34375 399.738281 481.863281 401.257812 C 481.355469 402.773438 481.5 404.414062 482.222656 405.835938 C 483.234375 407.859375 485.308594 409.113281 487.574219 409.113281 C 488.511719 409.113281 489.453125 408.894531 490.320312 408.460938 C 493.257812 406.945312 494.441406 403.351562 492.945312 400.390625 C 491.910156 398.363281 489.863281 397.113281 487.597656 397.113281 Z M 488.777344 405.496094 C 488.390625 405.714844 487.984375 405.785156 487.546875 405.785156 C 486.585938 405.785156 485.644531 405.257812 485.164062 404.339844 C 484.488281 403.015625 485.019531 401.402344 486.34375 400.726562 C 486.730469 400.535156 487.140625 400.4375 487.546875 400.4375 C 488.535156 400.4375 489.453125 400.96875 489.933594 401.90625 C 490.609375 403.234375 490.078125 404.847656 488.753906 405.496094 Z M 488.777344 405.496094 " fill-opacity="1" fill-rule="nonzero"/><path fill="#b58934" d="M 464.898438 373.953125 C 463.742188 373.953125 462.609375 374.21875 461.570312 374.75 C 457.980469 376.582031 456.535156 380.992188 458.367188 384.582031 C 459.621094 387.039062 462.125 388.582031 464.898438 388.582031 C 466.03125 388.582031 467.1875 388.316406 468.199219 387.785156 C 471.789062 385.929688 473.234375 381.546875 471.402344 377.929688 C 470.152344 375.472656 467.644531 373.929688 464.898438 373.929688 Z M 466.703125 384.820312 C 466.125 385.136719 465.5 385.257812 464.898438 385.257812 C 463.453125 385.257812 462.054688 384.460938 461.355469 383.085938 C 460.367188 381.136719 461.136719 378.726562 463.089844 377.738281 C 463.667969 377.425781 464.296875 377.304688 464.898438 377.304688 C 466.34375 377.304688 467.742188 378.097656 468.441406 379.472656 C 469.425781 381.449219 468.65625 383.835938 466.703125 384.820312 Z M 466.703125 384.820312 " fill-opacity="1" fill-rule="nonzero"/></svg>