<svg xmlns="http://www.w3.org/2000/svg" xmlns:xlink="http://www.w3.org/1999/xlink" width="1080" zoomAndPan="magnify" viewBox="0 0 810 809.999993" height="1080" preserveAspectRatio="xMidYMid meet" version="1.0"><path fill="#ffffff" d="M 612.660156 325.671875 C 612.660156 325.671875 574.738281 294.730469 574.738281 294.730469 L 574.738281 255.222656 C 574.738281 252.683594 573.730469 250.25 571.933594 248.453125 L 463.773438 140.289062 C 461.972656 138.492188 459.539062 137.488281 457 137.488281 L 274.367188 137.488281 C 269.078125 137.488281 264.742188 141.769531 264.742188 147.113281 L 264.742188 295.101562 C 264.320312 295.367188 263.84375 295.632812 263.472656 295.949219 L 226.820312 325.621094 L 226.765625 325.621094 C 216.242188 334.082031 210.210938 346.566406 210.210938 360 L 210.210938 577.804688 C 210.210938 602.027344 229.941406 621.703125 254.113281 621.703125 L 585.316406 621.703125 C 609.539062 621.703125 629.214844 601.976562 629.214844 577.804688 L 629.214844 360 C 629.214844 346.566406 623.183594 334.082031 612.714844 325.671875 Z M 574.632812 319.539062 L 590.972656 332.867188 L 574.632812 345.296875 Z M 283.835938 156.6875 L 447.269531 156.6875 L 447.269531 255.222656 C 447.269531 260.511719 451.554688 264.847656 456.894531 264.847656 L 555.433594 264.847656 L 555.433594 359.839844 L 419.660156 463.03125 L 283.890625 359.839844 L 283.890625 156.6875 Z M 466.46875 170.277344 L 541.839844 245.648438 L 466.46875 245.648438 Z M 264.636719 319.589844 L 264.636719 345.242188 L 248.292969 332.8125 Z M 229.304688 577.804688 L 229.304688 360 C 229.304688 354.867188 230.890625 349.949219 233.75 345.878906 L 403.050781 474.507812 L 231.527344 587.90625 C 230.097656 584.839844 229.304688 581.402344 229.304688 577.804688 Z M 585.261719 602.503906 L 254.058594 602.503906 C 251.308594 602.503906 248.714844 602.027344 246.230469 601.234375 L 419.660156 486.621094 L 593.089844 601.234375 C 590.605469 602.082031 587.960938 602.503906 585.261719 602.503906 Z M 609.960938 577.804688 C 609.960938 581.402344 609.167969 584.839844 607.742188 587.960938 L 436.214844 474.5625 L 605.519531 345.929688 C 608.375 350.003906 609.960938 354.921875 609.960938 360.050781 Z M 609.960938 577.804688 " fill-opacity="1" fill-rule="nonzero"/><path fill="#ffffff" d="M 478.476562 358.78125 C 490.480469 339.636719 489.953125 323.558594 487.359375 313.402344 C 482.390625 293.992188 465.886719 280.453125 447.164062 280.453125 C 437.007812 280.453125 427.382812 284.628906 419.660156 292.140625 C 411.9375 284.578125 402.3125 280.453125 392.15625 280.453125 C 373.433594 280.453125 356.933594 293.992188 351.960938 313.402344 C 349.367188 323.503906 348.839844 339.582031 360.84375 358.78125 C 371.476562 375.761719 389.722656 391.363281 415.058594 405.167969 C 416.488281 405.960938 418.074219 406.332031 419.660156 406.332031 C 421.246094 406.332031 422.832031 405.960938 424.261719 405.167969 C 449.542969 391.363281 467.792969 375.761719 478.476562 358.78125 Z M 370.578125 318.164062 C 373.328125 307.425781 382.371094 299.652344 392.15625 299.652344 C 399.5625 299.652344 406.4375 304.199219 411.460938 312.503906 C 413.207031 315.359375 416.328125 317.15625 419.660156 317.15625 C 422.992188 317.15625 426.113281 315.414062 427.859375 312.554688 C 432.882812 304.253906 439.757812 299.703125 447.164062 299.703125 C 456.949219 299.703125 466.046875 307.480469 468.742188 318.214844 C 470.804688 326.414062 473.238281 354.976562 419.660156 385.808594 C 366.082031 354.921875 368.460938 326.359375 370.578125 318.164062 Z M 370.578125 318.164062 " fill-opacity="1" fill-rule="nonzero"/></svg>