<svg xmlns="http://www.w3.org/2000/svg" xmlns:xlink="http://www.w3.org/1999/xlink" width="1080" zoomAndPan="magnify" viewBox="0 0 810 809.999993" height="1080" preserveAspectRatio="xMidYMid meet" version="1.0"><path fill="#ffffff" d="M 252.476562 396.695312 C 252.722656 397.449219 273.796875 460.578125 353.972656 460.578125 C 368.738281 460.578125 385.5 458.421875 404.488281 453.378906 C 413.808594 455.339844 419.957031 455.058594 441.800781 454.078125 C 437.472656 456.621094 432.042969 460.457031 427.960938 465.519531 C 380.703125 470.667969 381.71875 493.632812 381.769531 494.613281 C 381.824219 495.488281 382.558594 496.191406 383.433594 496.207031 C 384.398438 496.226562 385.34375 496.242188 386.273438 496.242188 C 403.019531 496.242188 415.347656 492.320312 422.96875 484.578125 C 429.714844 477.710938 430.464844 470.070312 430.535156 467.761719 C 437.210938 459.441406 448.265625 454.464844 450.03125 453.695312 C 455.65625 453.449219 462.136719 453.167969 469.6875 452.886719 C 510.167969 451.433594 529.875 484.945312 533.464844 491.757812 C 551 536.460938 551.929688 583.039062 551.929688 583.773438 L 555.363281 583.738281 C 555.363281 583.125 554.730469 551.648438 544.816406 515.441406 C 544.816406 515.386719 544.851562 515.351562 544.851562 515.300781 C 544.886719 514.808594 547.933594 469.195312 531.207031 433.445312 C 535.078125 428.941406 550.703125 408.117188 534.972656 380.261719 C 534.710938 379.789062 534.253906 379.476562 533.710938 379.40625 C 533.167969 379.316406 532.640625 379.511719 532.257812 379.878906 C 532.097656 380.035156 518.945312 393.367188 522.113281 416.03125 C 510.695312 393.613281 509.78125 385.359375 508.539062 373.730469 C 508.363281 372.082031 508.171875 370.347656 507.945312 368.511719 C 513.917969 362.589844 557.796875 315.519531 517.191406 248.957031 C 516.929688 248.519531 516.472656 248.222656 515.964844 248.152344 C 515.476562 248.0625 514.949219 248.238281 514.566406 248.570312 C 513.933594 249.132812 452.957031 305.710938 504.492188 368.546875 C 504.738281 370.507812 504.929688 372.347656 505.125 374.097656 C 506.210938 384.222656 507.066406 391.878906 514.300781 407.78125 C 508.75 401.371094 501.460938 394.171875 493 388.621094 C 492.5625 382.769531 488.078125 351.289062 442.660156 349.222656 C 442.167969 349.1875 441.640625 349.417969 441.308594 349.785156 C 440.960938 350.167969 440.820312 350.679688 440.890625 351.1875 C 440.960938 351.605469 447.476562 391.648438 484.875 391.648438 C 486.785156 391.648438 488.796875 391.527344 490.882812 391.300781 C 509.152344 403.15625 522.238281 423.828125 522.9375 424.964844 C 523.707031 426.402344 524.480469 427.820312 525.320312 429.363281 C 539.457031 455.113281 541.574219 488.273438 541.679688 504.773438 C 540.367188 500.65625 538.914062 496.523438 537.335938 492.386719 C 537.355469 492.109375 537.335938 491.8125 537.214844 491.53125 C 537.195312 491.476562 536.917969 490.898438 536.410156 489.917969 C 525.476562 462.277344 508.257812 435.335938 481.125 419.9375 C 416.417969 383.1875 409.691406 367.386719 402.5625 350.675781 C 402.035156 349.453125 401.476562 348.191406 400.933594 346.929688 C 407.625 343.933594 433.460938 331.410156 445.355469 312.367188 C 458.421875 291.453125 470.789062 277.246094 470.914062 277.105469 C 471.316406 276.632812 471.457031 275.984375 471.226562 275.390625 C 471.019531 274.792969 470.492188 274.375 469.878906 274.285156 C 463.574219 273.289062 452.730469 270.851562 450.417969 268.558594 C 449.664062 267.804688 449.507812 265.984375 449.332031 264.039062 C 448.945312 259.625 448.351562 252.96875 438.558594 252.96875 L 412.632812 252.96875 C 412.109375 248.1875 411.058594 244.472656 409.304688 242.300781 C 397.78125 228.058594 393.59375 226.378906 391.019531 226.519531 C 390.089844 226.589844 388.792969 226.992188 387.867188 228.53125 C 387.113281 229.792969 386.851562 231.617188 386.535156 233.71875 C 385.730469 239.324219 384.765625 243.316406 379.894531 243.667969 C 376.078125 243.949219 372.800781 242.285156 369.648438 240.6875 C 365.691406 238.691406 361.589844 236.609375 357.175781 239.253906 C 353.691406 241.335938 353.023438 244.296875 352.535156 246.433594 C 351.957031 248.976562 351.746094 249.921875 347.523438 249.640625 C 337.941406 248.992188 329.480469 245.785156 329.394531 245.75 C 328.886719 245.558594 328.328125 245.613281 327.851562 245.910156 C 327.503906 246.136719 319.410156 251.53125 326.523438 269.277344 C 327.957031 272.867188 329.992188 277.105469 332.355469 281.609375 C 324.488281 276.667969 315.117188 271.972656 312.15625 275.511719 C 310.460938 277.5625 310.738281 280.292969 311.003906 282.710938 C 311.195312 284.585938 311.386719 286.375 310.632812 287.214844 C 310.054688 287.863281 308.742188 288.195312 306.816406 288.195312 C 302.714844 288.195312 297.742188 286.339844 292.941406 284.550781 C 285.585938 281.800781 278.648438 279.226562 276.003906 284.480469 C 272.097656 292.292969 281.347656 321.582031 298.566406 332.601562 C 313.699219 342.285156 366.460938 348.101562 390.371094 348.101562 C 393.207031 348.101562 395.625 348.015625 397.535156 347.839844 C 398.148438 349.242188 398.761719 350.625 399.339844 351.992188 C 406.695312 369.261719 413.632812 385.570312 479.355469 422.898438 C 500.304688 434.792969 515.179688 453.832031 525.777344 474.695312 C 515.230469 462.558594 497.03125 448.4375 469.792969 449.402344 C 466.9375 448.648438 431.992188 438.925781 406.207031 410.636719 C 406.835938 405.382812 408.238281 378.527344 373.484375 366.199219 C 372.992188 366.023438 372.433594 366.074219 371.996094 366.355469 C 371.558594 366.636719 371.261719 367.109375 371.207031 367.617188 C 371.101562 368.507812 368.964844 389.476562 380.492188 402.683594 C 386.042969 409.042969 393.839844 412.460938 403.613281 412.878906 C 422.792969 433.96875 446.933594 445.003906 459.914062 449.789062 C 452.886719 450.085938 446.933594 450.347656 441.851562 450.574219 C 420.429688 451.558594 414.246094 451.820312 405.503906 450.03125 C 400.914062 442.625 355.40625 374.203125 253.757812 394.453125 C 253.285156 394.539062 252.863281 394.835938 252.617188 395.257812 C 252.375 395.679688 252.320312 396.1875 252.460938 396.660156 Z M 402.984375 409.464844 C 394.574219 408.9375 387.902344 405.925781 383.152344 400.476562 C 374.691406 390.789062 374.34375 375.867188 374.554688 370.261719 C 403.753906 381.648438 403.597656 403.5625 402.984375 409.464844 Z M 398.394531 338.679688 C 398.394531 338.835938 398.429688 338.992188 398.480469 339.152344 C 398.480469 339.152344 398.480469 339.167969 398.480469 339.1875 C 398.445312 339.027344 398.429688 338.855469 398.394531 338.695312 Z M 335.910156 288.089844 C 344.039062 302.542969 354.320312 317.886719 359.558594 323.125 C 362.5 326.066406 368.578125 330.394531 374.886719 334.578125 C 353.777344 325.402344 332.144531 308.96875 331.898438 308.777344 C 331.144531 308.199219 330.058594 308.339844 329.5 309.09375 C 328.921875 309.847656 329.0625 310.933594 329.816406 311.492188 C 331.058594 312.4375 360.503906 334.824219 384.921875 341.9375 C 385.082031 341.988281 385.238281 342.007812 385.394531 342.007812 C 385.660156 342.007812 385.886719 341.882812 386.113281 341.777344 C 386.410156 341.953125 386.691406 342.128906 386.972656 342.304688 C 372.503906 340.011719 329.097656 331.722656 305.800781 312.351562 C 305.082031 311.738281 303.996094 311.84375 303.382812 312.578125 C 302.769531 313.3125 302.875 314.382812 303.609375 314.996094 C 324.332031 332.199219 359.261719 340.746094 378.25 344.300781 C 352.375 342.863281 312.734375 337.558594 300.527344 329.746094 C 284.445312 319.445312 276.265625 291.925781 279.191406 286.058594 C 280.453125 283.554688 285.988281 285.621094 291.855469 287.808594 C 296.707031 289.613281 302.191406 291.664062 306.921875 291.664062 C 309.914062 291.664062 312 290.960938 313.296875 289.542969 C 315.082031 287.566406 314.785156 284.8125 314.523438 282.378906 C 314.3125 280.46875 314.121094 278.664062 314.910156 277.738281 C 316.484375 276.617188 326.453125 281.503906 335.945312 288.054688 Z M 439.066406 286.757812 C 438.15625 286.496094 437.210938 287.039062 436.949219 287.96875 C 436.859375 288.28125 428.242188 318.515625 401.828125 339.992188 C 401.933594 339.554688 402.035156 339.046875 402.140625 338.574219 C 411.285156 326.398438 419.519531 293.816406 419.886719 292.382812 C 420.113281 291.453125 419.554688 290.523438 418.644531 290.296875 C 417.714844 290.050781 416.785156 290.628906 416.558594 291.539062 C 416.488281 291.820312 411.074219 313.226562 404.4375 327.625 C 408.570312 307.164062 414.054688 275.511719 412.984375 256.417969 L 438.628906 256.417969 C 445.269531 256.417969 445.582031 259.921875 445.96875 264.355469 C 446.179688 266.808594 446.40625 269.347656 448.054688 270.992188 C 451.03125 273.972656 461.207031 276.195312 466.429688 277.175781 C 462.398438 282.0625 452.644531 294.324219 442.5 310.5625 C 434.023438 324.121094 417.59375 334.457031 407.257812 339.976562 C 432.042969 318.132812 439.941406 290.121094 440.292969 288.859375 C 440.539062 287.949219 440.011719 287.003906 439.085938 286.742188 Z M 396.292969 262.917969 C 395.921875 262.042969 394.90625 261.640625 394.03125 262.007812 C 393.15625 262.375 392.753906 263.390625 393.121094 264.265625 C 403.839844 289.578125 398.429688 337.3125 398.324219 338.3125 C 394.539062 317.253906 381.417969 277.71875 380.804688 275.914062 C 380.507812 275.023438 379.546875 274.53125 378.632812 274.828125 C 377.742188 275.128906 377.25 276.109375 377.546875 277 C 377.6875 277.441406 390.914062 317.21875 394.820312 338.277344 C 371.136719 312.613281 354.320312 275.707031 354.144531 275.300781 C 353.761719 274.445312 352.726562 274.058594 351.867188 274.445312 C 351.011719 274.828125 350.625 275.847656 351.011719 276.722656 C 351.1875 277.125 369.261719 316.765625 394.46875 342.917969 C 387.550781 338.730469 367.828125 326.539062 361.992188 320.707031 C 357.351562 316.0625 347.296875 301.332031 339.1875 286.988281 C 339.152344 286.496094 338.925781 286.003906 338.484375 285.707031 C 338.484375 285.707031 338.484375 285.707031 338.46875 285.707031 C 334.949219 279.402344 331.847656 273.234375 329.78125 268.085938 C 324.964844 256.070312 327.90625 250.9375 329.253906 249.414062 C 331.863281 250.324219 339.132812 252.601562 347.367188 253.144531 C 353.988281 253.582031 355.179688 250.746094 355.949219 247.257812 C 356.386719 245.296875 356.773438 243.597656 359 242.265625 C 361.644531 240.691406 364.078125 241.777344 368.140625 243.824219 C 371.558594 245.542969 375.445312 247.484375 380.195312 247.171875 C 388.199219 246.59375 389.285156 239.199219 389.984375 234.296875 C 390.214844 232.703125 390.457031 231.039062 390.859375 230.371094 C 391.070312 230.039062 391.195312 230.023438 391.300781 230.023438 C 391.316406 230.023438 391.351562 230.023438 391.386719 230.023438 C 392.507812 230.023438 396.152344 231.546875 406.679688 244.542969 C 412.898438 252.234375 408.394531 287.089844 403.210938 315.589844 C 403.5625 299.25 402.5625 277.753906 396.292969 262.972656 Z M 489.570312 388.007812 C 455.601562 391.019531 446.582031 361.152344 444.726562 352.761719 C 484.101562 355.460938 488.972656 381.28125 489.570312 388.007812 Z M 506.332031 365.320312 C 462.171875 310.230469 506.210938 261.65625 515.386719 252.566406 C 551.980469 314.59375 514.214844 357.421875 506.332031 365.320312 Z M 529.683594 429.992188 C 519.171875 405.363281 529.085938 389.265625 533.167969 384.101562 C 545.0625 407.292969 534.148438 424.421875 529.683594 429.992188 Z M 427 469.074219 C 426.648438 471.859375 425.335938 477.324219 420.480469 482.230469 C 413.386719 489.394531 401.546875 492.984375 385.359375 492.792969 C 386.183594 487.9375 391.632812 473.261719 427.015625 469.074219 Z M 256.402344 397.484375 C 349.925781 379.773438 394.121094 438.996094 401.757812 450.539062 C 292.59375 478.761719 261.167969 410.078125 256.402344 397.484375 Z M 476.1875 493.789062 C 476.1875 497.976562 479.582031 501.390625 483.789062 501.390625 C 487.992188 501.390625 491.390625 497.992188 491.390625 493.789062 C 491.390625 489.585938 487.992188 486.1875 483.789062 486.1875 C 479.582031 486.1875 476.1875 489.585938 476.1875 493.789062 Z M 338.152344 482.878906 C 338.152344 485.453125 340.238281 487.535156 342.8125 487.535156 C 345.386719 487.535156 347.472656 485.453125 347.472656 482.878906 C 347.472656 480.300781 345.386719 478.21875 342.8125 478.21875 C 340.238281 478.21875 338.152344 480.300781 338.152344 482.878906 Z M 285.601562 509.484375 C 285.601562 513.898438 289.175781 517.472656 293.589844 517.472656 C 298.003906 517.472656 301.578125 513.898438 301.578125 509.484375 C 301.578125 505.070312 298.003906 501.496094 293.589844 501.496094 C 289.175781 501.496094 285.601562 505.070312 285.601562 509.484375 Z M 281.625 350.503906 C 278.316406 350.503906 275.636719 353.183594 275.636719 356.492188 C 275.636719 359.804688 278.316406 362.484375 281.625 362.484375 C 284.9375 362.484375 287.617188 359.804688 287.617188 356.492188 C 287.617188 353.183594 284.9375 350.503906 281.625 350.503906 Z M 478.515625 232.753906 C 478.515625 230.179688 476.429688 228.09375 473.855469 228.09375 C 471.28125 228.09375 469.195312 230.179688 469.195312 232.753906 C 469.195312 235.328125 471.28125 237.414062 473.855469 237.414062 C 476.429688 237.414062 478.515625 235.328125 478.515625 232.753906 Z M 478.515625 232.753906 " fill-opacity="1" fill-rule="nonzero"/></svg>