<svg xmlns="http://www.w3.org/2000/svg" xmlns:xlink="http://www.w3.org/1999/xlink" width="1080" zoomAndPan="magnify" viewBox="0 0 810 809.999993" height="1080" preserveAspectRatio="xMidYMid meet" version="1.0"><path fill="#c58b2b" d="M 180.25 392.765625 C 180.613281 393.875 211.664062 486.902344 329.808594 486.902344 C 351.566406 486.902344 376.269531 483.726562 404.25 476.292969 C 417.984375 479.183594 427.042969 478.773438 459.230469 477.328125 C 452.855469 481.070312 444.855469 486.722656 438.839844 494.183594 C 369.199219 501.769531 370.695312 535.609375 370.773438 537.058594 C 370.851562 538.347656 371.933594 539.378906 373.226562 539.40625 C 374.644531 539.429688 376.039062 539.457031 377.40625 539.457031 C 402.082031 539.457031 420.253906 533.675781 431.484375 522.265625 C 441.421875 512.148438 442.53125 500.894531 442.632812 497.488281 C 452.46875 485.226562 468.757812 477.894531 471.363281 476.757812 C 479.648438 476.398438 489.199219 475.984375 500.324219 475.570312 C 559.976562 473.429688 589.015625 522.808594 594.308594 532.847656 C 620.148438 598.722656 621.515625 667.359375 621.515625 668.441406 L 626.574219 668.390625 C 626.574219 667.488281 625.644531 621.101562 611.035156 567.746094 C 611.035156 567.671875 611.085938 567.617188 611.085938 567.542969 C 611.136719 566.820312 615.628906 499.601562 590.980469 446.917969 C 596.683594 440.285156 619.707031 409.59375 596.527344 368.554688 C 596.140625 367.855469 595.46875 367.390625 594.671875 367.289062 C 593.871094 367.160156 593.097656 367.441406 592.527344 367.984375 C 592.296875 368.21875 572.910156 387.859375 577.582031 421.261719 C 560.753906 388.222656 559.410156 376.0625 557.578125 358.925781 C 557.320312 356.5 557.035156 353.941406 556.699219 351.234375 C 565.503906 342.507812 630.164062 273.148438 570.328125 175.0625 C 569.941406 174.417969 569.269531 173.976562 568.523438 173.875 C 567.800781 173.746094 567.023438 174.003906 566.457031 174.496094 C 565.527344 175.320312 475.675781 258.695312 551.613281 351.285156 C 551.976562 354.175781 552.261719 356.886719 552.542969 359.46875 C 554.144531 374.386719 555.410156 385.667969 566.070312 409.105469 C 557.886719 399.65625 547.148438 389.046875 534.683594 380.867188 C 534.035156 372.242188 527.429688 325.859375 460.496094 322.8125 C 459.773438 322.761719 459 323.097656 458.507812 323.640625 C 457.992188 324.207031 457.785156 324.957031 457.890625 325.703125 C 457.992188 326.324219 467.59375 385.332031 522.703125 385.332031 C 525.519531 385.332031 528.488281 385.148438 531.558594 384.816406 C 558.480469 402.289062 577.761719 432.75 578.796875 434.425781 C 579.929688 436.542969 581.066406 438.632812 582.304688 440.90625 C 603.136719 478.851562 606.261719 527.710938 606.414062 552.027344 C 604.480469 545.960938 602.335938 539.871094 600.011719 533.777344 C 600.039062 533.367188 600.011719 532.925781 599.832031 532.515625 C 599.808594 532.4375 599.394531 531.585938 598.644531 530.140625 C 582.539062 489.40625 557.164062 449.707031 517.179688 427.019531 C 421.828125 372.863281 411.917969 349.582031 401.414062 324.957031 C 400.636719 323.148438 399.8125 321.289062 399.011719 319.429688 C 408.871094 315.019531 446.945312 296.5625 464.472656 268.503906 C 483.726562 237.683594 501.953125 216.75 502.132812 216.542969 C 502.726562 215.847656 502.933594 214.890625 502.597656 214.011719 C 502.289062 213.136719 501.511719 212.515625 500.609375 212.386719 C 491.316406 210.914062 475.339844 207.328125 471.933594 203.945312 C 470.820312 202.835938 470.589844 200.152344 470.332031 197.285156 C 469.765625 190.78125 468.886719 180.972656 454.457031 180.972656 L 416.253906 180.972656 C 415.480469 173.925781 413.929688 168.453125 411.351562 165.253906 C 394.363281 144.269531 388.195312 141.789062 384.402344 141.996094 C 383.035156 142.101562 381.125 142.691406 379.753906 144.964844 C 378.644531 146.824219 378.257812 149.507812 377.792969 152.605469 C 376.605469 160.867188 375.1875 166.75 368.011719 167.265625 C 362.382812 167.679688 357.558594 165.226562 352.910156 162.878906 C 347.078125 159.9375 341.035156 156.863281 334.53125 160.761719 C 329.394531 163.832031 328.414062 168.195312 327.691406 171.34375 C 326.839844 175.089844 326.53125 176.480469 320.308594 176.070312 C 306.191406 175.113281 293.722656 170.390625 293.59375 170.339844 C 292.84375 170.054688 292.019531 170.132812 291.320312 170.570312 C 290.804688 170.90625 278.878906 178.855469 289.359375 205.003906 C 291.476562 210.296875 294.472656 216.542969 297.957031 223.175781 C 286.367188 215.898438 272.554688 208.980469 268.195312 214.195312 C 265.691406 217.214844 266.101562 221.242188 266.488281 224.800781 C 266.773438 227.566406 267.058594 230.199219 265.949219 231.4375 C 265.097656 232.390625 263.160156 232.882812 260.320312 232.882812 C 254.28125 232.882812 246.949219 230.144531 239.878906 227.511719 C 229.035156 223.460938 218.816406 219.664062 214.917969 227.410156 C 209.160156 238.921875 222.789062 282.082031 248.164062 298.316406 C 270.464844 312.589844 348.210938 321.160156 383.445312 321.160156 C 387.628906 321.160156 391.191406 321.03125 394.003906 320.773438 C 394.90625 322.839844 395.8125 324.878906 396.664062 326.890625 C 407.503906 352.34375 417.726562 376.375 514.574219 431.378906 C 545.445312 448.90625 567.359375 476.964844 582.976562 507.707031 C 567.4375 489.820312 540.617188 469.015625 500.480469 470.433594 C 496.273438 469.324219 444.777344 455 406.78125 413.3125 C 407.710938 405.566406 409.773438 365.996094 358.5625 347.824219 C 357.839844 347.566406 357.015625 347.644531 356.371094 348.058594 C 355.722656 348.46875 355.285156 349.167969 355.207031 349.914062 C 355.054688 351.230469 351.902344 382.128906 368.886719 401.59375 C 377.070312 410.960938 388.558594 415.996094 402.960938 416.617188 C 431.226562 447.695312 466.796875 463.957031 485.921875 471.003906 C 475.570312 471.441406 466.796875 471.828125 459.308594 472.164062 C 427.742188 473.609375 418.628906 473.996094 405.75 471.363281 C 398.984375 460.445312 331.925781 359.621094 182.136719 389.460938 C 181.4375 389.589844 180.820312 390.027344 180.457031 390.648438 C 180.097656 391.269531 180.019531 392.015625 180.226562 392.714844 Z M 402.03125 411.582031 C 389.640625 410.808594 379.808594 406.367188 372.8125 398.339844 C 360.34375 384.066406 359.828125 362.074219 360.136719 353.8125 C 403.167969 370.59375 402.933594 402.882812 402.03125 411.582031 Z M 395.269531 307.273438 C 395.269531 307.507812 395.320312 307.738281 395.398438 307.972656 C 395.398438 307.972656 395.398438 307.996094 395.398438 308.023438 C 395.347656 307.789062 395.320312 307.53125 395.269531 307.300781 Z M 303.195312 232.726562 C 315.171875 254.023438 330.324219 276.632812 338.042969 284.351562 C 342.378906 288.6875 351.335938 295.066406 360.628906 301.234375 C 329.523438 287.707031 297.644531 263.496094 297.285156 263.210938 C 296.175781 262.359375 294.574219 262.566406 293.75 263.675781 C 292.894531 264.785156 293.101562 266.386719 294.210938 267.210938 C 296.046875 268.605469 339.4375 301.59375 375.417969 312.074219 C 375.652344 312.152344 375.882812 312.179688 376.117188 312.179688 C 376.503906 312.179688 376.839844 311.996094 377.175781 311.84375 C 377.613281 312.101562 378.027344 312.359375 378.4375 312.617188 C 357.117188 309.234375 293.152344 297.027344 258.824219 268.476562 C 257.765625 267.574219 256.164062 267.730469 255.261719 268.8125 C 254.359375 269.898438 254.511719 271.472656 255.597656 272.375 C 286.132812 297.722656 337.601562 310.320312 365.585938 315.558594 C 327.460938 313.441406 269.046875 305.621094 251.054688 294.109375 C 227.359375 278.933594 215.304688 238.378906 219.613281 229.734375 C 221.472656 226.042969 229.628906 229.085938 238.277344 232.3125 C 245.425781 234.972656 253.507812 237.992188 260.476562 237.992188 C 264.890625 237.992188 267.960938 236.960938 269.871094 234.871094 C 272.503906 231.953125 272.066406 227.902344 271.679688 224.3125 C 271.367188 221.5 271.085938 218.839844 272.246094 217.472656 C 274.570312 215.820312 289.257812 223.023438 303.246094 232.675781 Z M 455.207031 230.765625 C 453.863281 230.378906 452.46875 231.179688 452.082031 232.546875 C 451.953125 233.011719 439.253906 277.5625 400.328125 309.210938 C 400.484375 308.566406 400.636719 307.816406 400.792969 307.117188 C 414.265625 289.179688 426.398438 241.167969 426.941406 239.050781 C 427.277344 237.683594 426.449219 236.316406 425.109375 235.980469 C 423.738281 235.617188 422.371094 236.46875 422.035156 237.8125 C 421.933594 238.226562 413.957031 269.769531 404.175781 290.984375 C 410.265625 260.835938 418.34375 214.195312 416.769531 186.058594 L 454.558594 186.058594 C 464.34375 186.058594 464.808594 191.222656 465.375 197.75 C 465.683594 201.363281 466.019531 205.109375 468.445312 207.535156 C 472.835938 211.921875 487.832031 215.199219 495.523438 216.644531 C 489.585938 223.847656 475.210938 241.917969 460.265625 265.84375 C 447.769531 285.824219 423.558594 301.054688 408.328125 309.183594 C 444.855469 276.996094 456.496094 235.722656 457.011719 233.863281 C 457.375 232.519531 456.597656 231.128906 455.230469 230.738281 Z M 392.171875 195.636719 C 391.628906 194.34375 390.132812 193.75 388.839844 194.292969 C 387.550781 194.835938 386.957031 196.332031 387.5 197.621094 C 403.296875 234.921875 395.320312 305.261719 395.164062 306.730469 C 389.589844 275.707031 370.257812 217.445312 369.351562 214.789062 C 368.914062 213.472656 367.496094 212.75 366.152344 213.1875 C 364.835938 213.625 364.113281 215.070312 364.550781 216.386719 C 364.757812 217.035156 384.246094 275.652344 390.003906 306.679688 C 355.105469 268.863281 330.324219 214.476562 330.066406 213.882812 C 329.5 212.621094 327.976562 212.050781 326.710938 212.621094 C 325.445312 213.1875 324.878906 214.683594 325.445312 215.976562 C 325.703125 216.570312 352.34375 274.980469 389.488281 313.519531 C 379.289062 307.351562 350.226562 289.386719 341.628906 280.789062 C 334.789062 273.949219 319.972656 252.242188 308.023438 231.101562 C 307.972656 230.378906 307.636719 229.65625 306.988281 229.21875 C 306.988281 229.21875 306.988281 229.21875 306.964844 229.21875 C 301.777344 219.925781 297.207031 210.839844 294.160156 203.25 C 287.0625 185.542969 291.398438 177.980469 293.386719 175.734375 C 297.234375 177.074219 307.945312 180.429688 320.078125 181.230469 C 329.835938 181.875 331.589844 177.695312 332.726562 172.558594 C 333.371094 169.667969 333.9375 167.164062 337.214844 165.203125 C 341.113281 162.878906 344.703125 164.480469 350.691406 167.5 C 355.722656 170.027344 361.453125 172.894531 368.449219 172.429688 C 380.246094 171.578125 381.847656 160.683594 382.878906 153.457031 C 383.214844 151.109375 383.574219 148.65625 384.167969 147.675781 C 384.480469 147.183594 384.660156 147.160156 384.816406 147.160156 C 384.839844 147.160156 384.890625 147.160156 384.945312 147.160156 C 386.597656 147.160156 391.964844 149.40625 407.476562 168.558594 C 416.640625 179.890625 410.007812 231.257812 402.367188 273.253906 C 402.882812 249.171875 401.414062 217.5 392.171875 195.710938 Z M 529.621094 379.960938 C 479.574219 384.402344 466.277344 340.390625 463.542969 328.027344 C 521.570312 332.003906 528.746094 370.050781 529.621094 379.960938 Z M 554.324219 346.535156 C 489.25 265.355469 554.144531 193.777344 567.671875 180.378906 C 621.59375 271.78125 565.941406 334.894531 554.324219 346.535156 Z M 588.734375 441.835938 C 573.246094 405.542969 587.855469 381.820312 593.871094 374.207031 C 611.398438 408.382812 595.316406 433.625 588.734375 441.835938 Z M 437.421875 499.421875 C 436.902344 503.527344 434.96875 511.578125 427.816406 518.808594 C 417.363281 529.363281 399.914062 534.65625 376.0625 534.371094 C 377.277344 527.222656 385.304688 505.589844 437.445312 499.421875 Z M 186.03125 393.925781 C 323.84375 367.828125 388.96875 455.101562 400.226562 472.113281 C 239.359375 513.695312 193.054688 412.484375 186.03125 393.925781 Z M 509.902344 535.84375 C 509.902344 542.011719 514.910156 547.046875 521.105469 547.046875 C 527.300781 547.046875 532.308594 542.039062 532.308594 535.84375 C 532.308594 529.648438 527.300781 524.640625 521.105469 524.640625 C 514.910156 524.640625 509.902344 529.648438 509.902344 535.84375 Z M 306.5 519.761719 C 306.5 523.558594 309.570312 526.628906 313.367188 526.628906 C 317.160156 526.628906 320.230469 523.558594 320.230469 519.761719 C 320.230469 515.96875 317.160156 512.894531 313.367188 512.894531 C 309.570312 512.894531 306.5 515.96875 306.5 519.761719 Z M 229.0625 558.972656 C 229.0625 565.476562 234.328125 570.742188 240.832031 570.742188 C 247.335938 570.742188 252.601562 565.476562 252.601562 558.972656 C 252.601562 552.464844 247.335938 547.199219 240.832031 547.199219 C 234.328125 547.199219 229.0625 552.464844 229.0625 558.972656 Z M 223.203125 324.699219 C 218.324219 324.699219 214.375 328.648438 214.375 333.523438 C 214.375 338.402344 218.324219 342.351562 223.203125 342.351562 C 228.082031 342.351562 232.03125 338.402344 232.03125 333.523438 C 232.03125 328.648438 228.082031 324.695312 223.203125 324.695312 Z M 513.335938 151.1875 C 513.335938 147.390625 510.261719 144.320312 506.46875 144.320312 C 502.675781 144.320312 499.601562 147.390625 499.601562 151.1875 C 499.601562 154.980469 502.675781 158.050781 506.46875 158.050781 C 510.261719 158.050781 513.335938 154.980469 513.335938 151.1875 Z M 513.335938 151.1875 " fill-opacity="1" fill-rule="nonzero"/></svg>