<svg xmlns="http://www.w3.org/2000/svg" xmlns:xlink="http://www.w3.org/1999/xlink" width="1080" zoomAndPan="magnify" viewBox="0 0 810 809.999993" height="1080" preserveAspectRatio="xMidYMid meet" version="1.0"><path fill="#b58934" d="M 320.988281 428.625 L 376.648438 428.625 L 376.648438 383.308594 L 378.429688 382.25 C 415.941406 380.609375 460.457031 381.96875 489.027344 409.359375 C 490.1875 403.4375 490.046875 397.535156 495.570312 393.792969 C 501.089844 390.050781 508.054688 390.113281 513.175781 394.492188 C 514.476562 395.59375 517.917969 400.414062 517.917969 401.875 L 517.917969 475.722656 L 489.367188 475.722656 C 489.828125 469.199219 489.828125 462.996094 489.367188 456.457031 L 321.328125 456.457031 L 320.269531 457.515625 L 320.269531 475 L 292.4375 475 L 292.4375 345.496094 C 292.4375 344.175781 295.558594 339.496094 296.761719 338.414062 C 304.621094 331.390625 316.445312 334.671875 319.929688 344.417969 L 320.96875 428.625 Z M 320.988281 428.625 " fill-opacity="1" fill-rule="nonzero"/><path fill="#b58934" d="M 344.335938 382.410156 C 367.625 378.488281 375.886719 407.699219 357.859375 417.34375 C 341.195312 426.285156 323.109375 408.117188 332.511719 391.292969 C 334.753906 387.269531 339.695312 383.191406 344.316406 382.410156 Z M 344.335938 382.410156 " fill-opacity="1" fill-rule="nonzero"/></svg>