<svg xmlns="http://www.w3.org/2000/svg" xmlns:xlink="http://www.w3.org/1999/xlink" width="1080" zoomAndPan="magnify" viewBox="0 0 810 809.999993" height="1080" preserveAspectRatio="xMidYMid meet" version="1.2"><g id="25daaa72df"><path style=" stroke:none;fill-rule:nonzero;fill:#ffffff;fill-opacity:1;" d="M 401.695312 493.453125 C 398.796875 488.363281 393.378906 485.210938 387.53125 485.210938 C 384.734375 485.210938 381.960938 485.941406 379.492188 487.328125 C 375.710938 489.46875 372.988281 492.972656 371.832031 497.15625 C 371.730469 497.558594 371.628906 497.964844 371.527344 498.367188 C 367.21875 496.804688 362.101562 497.183594 357.96875 499.527344 C 350.15625 503.988281 347.433594 513.914062 351.84375 521.726562 C 352.148438 522.257812 352.476562 522.761719 352.726562 523.113281 C 363.261719 538.839844 393 543.097656 394.234375 543.273438 C 394.4375 543.300781 394.585938 543.324219 394.789062 543.324219 C 396.351562 543.324219 397.761719 542.394531 398.390625 540.929688 C 398.894531 539.773438 410.488281 512.050781 402.449219 495.117188 C 402.222656 494.5625 401.972656 494.007812 401.667969 493.503906 Z M 392.292969 534.984375 C 383.121094 533.246094 365.582031 528.203125 359.179688 518.628906 C 359.003906 518.375 358.828125 518.125 358.675781 517.871094 C 356.382812 513.816406 357.816406 508.648438 361.851562 506.355469 C 363.136719 505.625 364.574219 505.246094 366.007812 505.246094 C 369.058594 505.246094 371.855469 506.882812 373.367188 509.503906 C 374.425781 511.394531 376.820312 512.050781 378.710938 510.992188 C 379.996094 510.261719 380.699219 508.953125 380.699219 507.589844 C 380.699219 506.933594 380.523438 506.253906 380.171875 505.648438 C 379.0625 503.710938 378.785156 501.414062 379.367188 499.25 C 379.96875 497.082031 381.382812 495.292969 383.347656 494.15625 C 387.277344 491.914062 392.648438 493.425781 394.863281 497.332031 C 395.015625 497.585938 395.140625 497.863281 395.316406 498.265625 C 400.609375 509.429688 394.863281 527.902344 392.292969 534.960938 Z M 392.292969 534.984375 "/><path style=" stroke:none;fill-rule:nonzero;fill:#ffffff;fill-opacity:1;" d="M 448.214844 472.03125 C 447.054688 467.847656 444.335938 464.34375 440.554688 462.203125 C 438.109375 460.792969 435.335938 460.085938 432.515625 460.085938 C 426.667969 460.085938 421.226562 463.234375 418.351562 468.300781 C 418.023438 468.832031 417.773438 469.382812 417.621094 469.789062 C 409.507812 486.875 421.125 514.597656 421.601562 515.753906 C 422.234375 517.21875 423.667969 518.148438 425.207031 518.148438 C 425.382812 518.148438 425.558594 518.148438 425.734375 518.125 C 426.996094 517.949219 456.734375 513.6875 467.167969 498.089844 C 467.519531 497.609375 467.847656 497.105469 468.148438 496.578125 C 472.585938 488.789062 469.839844 478.808594 462.027344 474.398438 C 457.894531 472.054688 452.777344 471.679688 448.46875 473.242188 C 448.390625 472.835938 448.292969 472.433594 448.164062 472.03125 Z M 458.171875 481.203125 C 462.226562 483.523438 463.640625 488.664062 461.371094 492.722656 C 461.21875 493 461.042969 493.25 460.765625 493.628906 C 453.910156 503.859375 435.136719 508.421875 427.753906 509.832031 C 425.179688 502.75 419.460938 484.253906 424.804688 472.988281 C 424.929688 472.710938 425.054688 472.460938 425.207031 472.183594 C 426.695312 469.535156 429.515625 467.898438 432.539062 467.898438 C 433.976562 467.898438 435.414062 468.277344 436.699219 469.007812 C 438.664062 470.117188 440.074219 471.929688 440.65625 474.097656 C 441.261719 476.265625 440.984375 478.558594 439.875 480.5 C 439.519531 481.128906 439.34375 481.785156 439.34375 482.4375 C 439.34375 483.800781 440.074219 485.109375 441.335938 485.839844 C 443.226562 486.925781 445.621094 486.269531 446.679688 484.378906 C 448.871094 480.472656 454.238281 478.960938 458.171875 481.179688 Z M 458.171875 481.203125 "/><path style=" stroke:none;fill-rule:nonzero;fill:#ffffff;fill-opacity:1;" d="M 501.820312 439.875 L 453.332031 439.875 L 453.332031 362.910156 C 453.332031 362.910156 453.304688 362.808594 453.304688 362.78125 C 453.304688 362.328125 453.207031 361.875 453.027344 361.449219 C 453.003906 361.371094 452.953125 361.320312 452.929688 361.246094 C 452.800781 360.992188 452.703125 360.765625 452.523438 360.566406 L 409.078125 303.710938 L 409.078125 278.105469 L 428.609375 278.105469 C 430.777344 278.105469 432.539062 276.34375 432.539062 274.175781 C 432.539062 272.007812 430.800781 270.242188 428.609375 270.242188 L 409.078125 270.242188 L 409.078125 250.710938 C 409.078125 248.546875 407.3125 246.78125 405.148438 246.78125 C 402.980469 246.78125 401.214844 248.519531 401.214844 250.710938 L 401.214844 270.242188 L 381.683594 270.242188 C 379.515625 270.242188 377.753906 271.980469 377.753906 274.175781 C 377.753906 276.367188 379.515625 278.105469 381.683594 278.105469 L 401.214844 278.105469 L 401.214844 303.710938 L 357.742188 360.566406 C 357.589844 360.765625 357.492188 360.992188 357.390625 361.21875 C 357.339844 361.320312 357.289062 361.398438 357.238281 361.496094 C 357.0625 361.925781 357.011719 362.355469 356.988281 362.808594 C 356.988281 362.859375 356.960938 362.910156 356.960938 362.960938 L 356.960938 439.925781 L 308.472656 439.925781 C 306.308594 439.925781 304.542969 441.6875 304.542969 443.855469 L 304.542969 559.679688 C 304.542969 561.847656 306.308594 563.613281 308.472656 563.613281 L 501.820312 563.613281 C 503.988281 563.613281 505.726562 561.847656 505.726562 559.679688 L 505.726562 443.855469 C 505.726562 441.6875 503.988281 439.925781 501.820312 439.925781 Z M 405.148438 311.449219 L 441.488281 359.003906 L 368.804688 359.003906 L 405.144531 311.449219 Z M 364.800781 366.816406 L 445.492188 366.816406 L 445.492188 439.875 L 364.800781 439.875 Z M 497.914062 555.675781 L 312.40625 555.675781 L 312.40625 447.710938 L 497.914062 447.710938 Z M 497.914062 555.675781 "/><path style=" stroke:none;fill-rule:nonzero;fill:#ffffff;fill-opacity:1;" d="M 405.148438 384.203125 C 394.585938 384.203125 386.019531 392.773438 386.019531 403.332031 C 386.019531 413.890625 394.613281 422.460938 405.148438 422.460938 C 415.679688 422.460938 424.273438 413.890625 424.273438 403.332031 C 424.273438 392.773438 415.679688 384.203125 405.148438 384.203125 Z M 405.148438 414.621094 C 398.921875 414.621094 393.855469 409.558594 393.855469 403.308594 C 393.855469 397.058594 398.921875 392.015625 405.148438 392.015625 C 411.371094 392.015625 416.4375 397.082031 416.4375 403.308594 C 416.4375 409.53125 411.371094 414.621094 405.148438 414.621094 Z M 405.148438 414.621094 "/></g></svg>