<svg xmlns="http://www.w3.org/2000/svg" xmlns:xlink="http://www.w3.org/1999/xlink" width="500" zoomAndPan="magnify" viewBox="0 0 375 374.999991" height="500" preserveAspectRatio="xMidYMid meet" version="1.2"><defs><clipPath id="de6f5241e4"><path d="M 28 27 L 355.183594 27 L 355.183594 354.53125 L 28 354.53125 Z M 28 27 "/></clipPath></defs><g id="c9e355874f"><g clip-rule="nonzero" clip-path="url(#de6f5241e4)"><path style=" stroke:none;fill-rule:nonzero;fill:#4bbfda;fill-opacity:1;" d="M 355.265625 263.738281 C 355.265625 313.339844 314.574219 354.515625 264.929688 354.515625 L 119.796875 354.515625 C 70.152344 354.515625 28.433594 313.339844 28.433594 263.738281 L 28.433594 118.710938 C 28.433594 69.109375 70.15625 27.933594 119.796875 27.933594 L 264.929688 27.933594 C 314.574219 27.933594 355.265625 69.109375 355.265625 118.710938 Z M 355.265625 263.738281 "/></g><path style=" stroke:none;fill-rule:nonzero;fill:#ffffff;fill-opacity:1;" d="M 79.011719 232.695312 C 79.71875 215.707031 127.597656 237.253906 139.371094 217.804688 C 148.371094 203.875 147.007812 184.441406 153.261719 169.191406 C 163.363281 134.554688 202.425781 148.859375 228.523438 146.988281 C 255.390625 144.8125 246.53125 83.855469 259.578125 84.601562 C 265.613281 85.851562 269.308594 92.386719 273.0625 97.730469 C 285.746094 116.796875 300.566406 158.9375 299.152344 185.480469 C 299.777344 227.304688 263.671875 217.265625 235.308594 213.242188 C 175.808594 202.566406 219.578125 312.859375 157.339844 295.632812 C 127.085938 286.523438 90.128906 259.746094 79.128906 233.527344 L 79.003906 232.695312 Z M 79.011719 232.695312 "/></g></svg>