<svg xmlns="http://www.w3.org/2000/svg" xmlns:xlink="http://www.w3.org/1999/xlink" width="1080" zoomAndPan="magnify" viewBox="0 0 810 809.999993" height="1080" preserveAspectRatio="xMidYMid meet" version="1.0"><path fill="#b58934" d="M 305.398438 567.496094 C 304.078125 567.496094 302.757812 567.199219 301.539062 566.574219 L 299.789062 565.550781 C 285.871094 556.871094 240.867188 526.128906 243.046875 493.601562 C 244.632812 470.113281 261.855469 452.992188 284.050781 452.925781 C 291.414062 452.992188 299.097656 455.660156 305.234375 460.34375 C 311.335938 455.628906 318.925781 452.828125 326.3125 452.828125 C 335.945312 452.828125 343.929688 455.070312 350.230469 458.734375 L 350.890625 311.074219 C 350.890625 307.277344 353.398438 303.914062 357.0625 302.824219 L 555.984375 243.34375 C 558.621094 242.554688 561.457031 243.046875 563.605469 244.695312 C 565.78125 246.3125 567.101562 248.886719 567.101562 251.625 L 567.101562 291.875 L 566.96875 330.242188 C 567.691406 445.734375 567.496094 447.25 567.429688 447.941406 C 561.457031 494.359375 511.21875 518.542969 509.070312 519.527344 C 506.796875 520.617188 504.125 520.617188 501.8125 519.59375 C 501.484375 519.429688 501.058594 519.234375 500.761719 519.035156 L 499.769531 518.40625 C 485.882812 509.765625 440.886719 479.117188 443.027344 446.492188 C 444.613281 422.972656 461.867188 405.847656 484.03125 405.785156 L 484.167969 405.785156 C 491.558594 405.785156 499.144531 408.554688 505.214844 413.207031 C 511.285156 408.523438 518.871094 405.71875 526.261719 405.683594 C 528.929688 405.617188 539.589844 405.914062 549.449219 409.3125 L 549.71875 330.472656 C 549.648438 321.199219 549.613281 312.09375 549.550781 303.421875 L 368.308594 355.972656 C 368.175781 379.09375 367.847656 434.546875 367.480469 470.242188 L 367.417969 487.5625 C 367.417969 488.125 367.351562 488.648438 367.25 489.148438 C 367.152344 496.535156 367.019531 501.351562 366.921875 502.410156 C 362.765625 540.941406 311.304688 565.679688 309.125 566.703125 C 307.941406 567.265625 306.6875 567.527344 305.433594 567.527344 Z M 284.1875 470.179688 L 284.121094 470.179688 C 271.023438 470.210938 261.226562 480.339844 260.269531 494.757812 C 259.050781 513.261719 287.019531 536.621094 305.828125 548.921875 C 320.242188 541.105469 347.359375 522.167969 349.699219 500.492188 C 349.804688 499.308594 349.902344 494.027344 350 485.882812 C 349.109375 477.765625 341.652344 470.078125 326.28125 470.078125 C 321.164062 470.078125 315.527344 473.046875 312.296875 477.5 C 311.238281 478.953125 309.753906 480.042969 308.039062 480.601562 C 304.472656 481.824219 300.386719 480.601562 298.140625 477.566406 C 294.910156 473.148438 289.300781 470.179688 284.121094 470.179688 Z M 484.195312 423.039062 L 484.128906 423.039062 C 471.070312 423.070312 461.269531 433.195312 460.285156 447.613281 C 459.0625 466.152344 486.96875 489.445312 505.773438 501.714844 C 516.726562 495.449219 546.449219 475.886719 550.308594 445.703125 C 550.308594 444.808594 550.308594 438.671875 550.308594 429.042969 C 546.414062 425.578125 536.285156 422.941406 526.523438 422.941406 L 526.359375 422.941406 C 521.144531 422.941406 515.507812 425.976562 512.304688 430.429688 C 510.6875 432.671875 508.085938 434.023438 505.3125 434.023438 C 502.542969 434.023438 499.933594 432.703125 498.316406 430.460938 C 495.085938 426.007812 489.445312 423.007812 484.234375 423.007812 Z M 368.144531 317.570312 L 368.046875 338.058594 L 549.816406 285.371094 L 549.816406 263.273438 L 368.109375 317.605469 Z M 368.144531 317.570312 " fill-opacity="1" fill-rule="nonzero"/></svg>