<svg xmlns="http://www.w3.org/2000/svg" xmlns:xlink="http://www.w3.org/1999/xlink" width="1080" zoomAndPan="magnify" viewBox="0 0 810 809.999993" height="1080" preserveAspectRatio="xMidYMid meet" version="1.2"><g id="64585a0d31"><path style=" stroke:none;fill-rule:nonzero;fill:#000000;fill-opacity:1;" d="M -4.96875 426.464844 L -4.96875 245.886719 C -4.96875 245.886719 820.191406 245.886719 820.191406 245.886719 L 820.191406 423.800781 C 819.890625 423.886719 819.535156 424 819.082031 424.160156 C 816.519531 425.046875 815.390625 425.761719 812.671875 425.875 C 809.863281 426.015625 808.84375 426.03125 807.40625 428.335938 C 807.148438 428.113281 806.300781 427.898438 806.027344 427.609375 C 803.933594 429.488281 801.179688 433.53125 798.195312 434.285156 C 797.144531 434.554688 795.714844 434.332031 794.625 434.308594 C 792.472656 434.285156 790.953125 434.652344 788.910156 434.980469 C 785.863281 435.484375 782.863281 436.445312 779.75 436.804688 C 778.398438 436.964844 777.675781 436.46875 776.707031 436.414062 C 775.515625 436.324219 775.066406 436.554688 773.714844 437.09375 C 771.148438 438.109375 770.53125 436.988281 768.15625 436.050781 C 766.578125 435.425781 765.113281 434.859375 763.761719 433.898438 C 763.121094 433.441406 762.273438 432.296875 761.527344 431.980469 C 760.527344 431.554688 759.535156 431.96875 758.480469 431.867188 C 755.75 431.59375 756.765625 430.828125 755.140625 429.746094 C 753.910156 428.929688 751.863281 428.53125 750.476562 427.824219 C 748.773438 426.960938 747.09375 425.929688 745.25 425.03125 C 743.132812 423.992188 740.9375 422.335938 738.53125 422.679688 C 737.007812 422.902344 735.746094 423.894531 734.257812 424.144531 C 733.136719 424.34375 731.921875 424.214844 730.765625 424.214844 C 727.839844 424.214844 727.710938 424.0625 725.621094 422.742188 C 723.054688 421.105469 720.09375 422.199219 717.355469 421.609375 C 714.363281 420.976562 711.082031 418.832031 707.679688 420.441406 C 706.625 420.9375 706.152344 422.128906 705.222656 422.496094 C 704.265625 422.863281 702.121094 422.535156 701.136719 422.535156 C 697.878906 422.519531 694.507812 422.28125 691.269531 422.601562 C 689.242188 422.800781 687.410156 423.34375 685.378906 423.390625 C 680.074219 423.527344 674.550781 422.433594 669.34375 421.761719 C 668.542969 421.65625 666.726562 421.328125 666.019531 421.808594 C 665.40625 422.238281 665.277344 424.183594 664.597656 424.898438 C 663.957031 425.546875 663.195312 425.875 662.378906 426.320312 C 661.898438 426.585938 661.257812 426.65625 660.804688 426.945312 C 660.371094 427.210938 660.027344 428.136719 659.628906 428.296875 C 658.265625 428.859375 657.777344 428.410156 656.648438 429.226562 C 655.5 430.042969 654.328125 431.464844 653.59375 432.585938 C 650.425781 430.84375 644.808594 431.699219 640.972656 431.929688 C 639.375 432.019531 636.902344 431.746094 635.429688 431.996094 C 634.339844 432.179688 633.597656 432.652344 632.140625 432.691406 C 629.21875 432.753906 627.828125 432.753906 625.417969 431.5 C 624.257812 430.898438 623.304688 430.394531 621.914062 430.195312 C 620.457031 429.992188 618.992188 430.492188 617.894531 429.667969 C 617.144531 429.121094 617.167969 428.179688 616.351562 427.679688 C 615.558594 427.195312 614.320312 427.007812 613.390625 426.441406 C 611.863281 425.511719 610.308594 424.480469 608.492188 424.191406 C 607.414062 424.03125 606.035156 424.226562 604.941406 424.214844 C 603.753906 424.199219 602.011719 424.863281 600.945312 424.753906 C 599.632812 424.617188 598.867188 423.128906 597.953125 422.496094 C 596.945312 421.792969 595.6875 421.214844 594.449219 420.933594 C 592.566406 420.480469 590.984375 419.960938 588.960938 420.007812 C 585.589844 420.078125 586.277344 419.0625 584.09375 417.4375 C 581.621094 415.605469 576.921875 416.933594 573.859375 415.789062 C 572.972656 415.453125 572.425781 414.839844 571.523438 414.484375 C 569.722656 413.757812 568.839844 414.46875 566.992188 414.773438 C 565.015625 415.09375 564.585938 414.949219 563.023438 414.140625 C 561.261719 413.230469 560.359375 412.859375 558.46875 412.308594 C 555.804688 411.539062 554.726562 409.933594 551.835938 409.636719 C 548.507812 409.300781 544.410156 409.597656 541.480469 411.15625 C 540.785156 411.515625 540.128906 412.054688 539.433594 412.332031 C 537.960938 412.910156 537.59375 412.484375 536.441406 412.515625 C 534.136719 412.574219 532.75 413.285156 530.535156 414.003906 C 528.992188 414.5 528.175781 414.628906 527.019531 415.734375 C 525.957031 416.75 525.628906 418.832031 524.476562 419.582031 C 523.421875 420.261719 522.363281 419.96875 521.082031 419.96875 C 518.636719 419.953125 517.082031 420.605469 515.9375 422.519531 C 514.617188 424.746094 514.691406 428.210938 510.496094 428.441406 C 507.753906 428.59375 504.296875 426.074219 501.261719 425.847656 C 498.597656 425.648438 495.765625 425.890625 493.101562 425.914062 C 492.066406 425.914062 491.148438 425.777344 490.15625 426.050781 C 488.699219 426.441406 487.730469 427.59375 486.050781 427.679688 C 484.699219 427.746094 483.832031 426.824219 482.65625 426.863281 C 481.34375 426.90625 479.449219 428.097656 478.070312 428.464844 C 476.09375 429.003906 474.496094 431.21875 472.636719 430.976562 C 471.351562 430.800781 470.902344 429.480469 469.605469 429.347656 C 467.285156 429.121094 463.46875 431.738281 461.394531 432.484375 C 458.019531 433.699219 454.367188 434.769531 450.65625 434.378906 C 448.246094 434.125 446.949219 432.25 444.664062 432.300781 C 443.574219 432.324219 442.847656 432.890625 441.667969 432.636719 C 440.222656 432.316406 439.1875 430.953125 438.171875 430.105469 C 435.90625 428.210938 433.828125 427.59375 430.640625 427.59375 C 429.496094 427.59375 428.511719 427.6875 427.402344 427.410156 C 426.542969 427.203125 426.417969 426.648438 425.207031 426.695312 C 422.214844 426.832031 421.496094 429.339844 418.46875 427.433594 C 415.367188 425.472656 414.308594 424.023438 410.253906 424.761719 C 403.859375 425.953125 397.441406 427.898438 391.277344 429.320312 C 389.125 429.816406 387.277344 430.113281 385.246094 430.988281 C 384.277344 431.394531 383.117188 431.761719 382.21875 432.226562 C 381.453125 432.609375 381.316406 433.554688 380.257812 433.601562 C 379.011719 433.660156 376.707031 431.632812 375.667969 431.003906 C 373.296875 429.585938 372.167969 428.210938 369.144531 428.515625 C 367.097656 428.722656 364.847656 429.554688 362.773438 429.371094 C 361.648438 429.265625 360.832031 428.609375 359.78125 428.496094 C 358.347656 428.355469 357.011719 429.195312 355.523438 429.347656 C 354.050781 429.5 352.269531 429.386719 350.789062 429.335938 C 347.378906 429.25 347.296875 427.730469 345.097656 426.144531 C 343.105469 424.703125 341.046875 425 338.792969 425.511719 C 335.75 426.207031 336.175781 424.34375 333.542969 423.144531 C 332.421875 422.640625 331.964844 422.542969 330.460938 422.511719 C 329.230469 422.488281 328.003906 422.503906 326.773438 422.625 C 325.476562 422.753906 323.484375 423.59375 322.234375 423.480469 C 321.195312 423.398438 320.402344 422.6875 319.378906 422.511719 C 318.164062 422.3125 316.335938 422.425781 315.105469 422.511719 C 313.144531 422.640625 311.601562 423.601562 309.785156 423.886719 C 308.144531 424.128906 307.902344 423.679688 306.359375 423.144531 C 304.734375 422.582031 304.207031 422.785156 302.445312 423.144531 C 299.726562 423.703125 297.078125 423.90625 294.371094 424.335938 C 290.507812 424.945312 290.507812 426.746094 288.617188 429.363281 C 286.992188 431.617188 285.097656 430.082031 283.335938 431.449219 C 282.519531 432.082031 282.921875 433.316406 282.296875 433.914062 C 281.296875 434.882812 279.839844 434.273438 278.382812 433.949219 C 275.644531 433.316406 274.484375 433.730469 271.902344 434.285156 C 269.546875 434.789062 267.195312 434.714844 264.835938 434.285156 C 263.324219 434.019531 262.011719 433.316406 260.433594 433.523438 C 258.03125 433.84375 256.136719 435.53125 253.59375 435.914062 C 250.621094 436.363281 246.980469 437.714844 243.988281 437.714844 C 241.300781 437.714844 239.605469 435.4375 237.386719 434.332031 C 235.082031 433.179688 232.539062 434.148438 230.28125 433.570312 C 228.585938 433.140625 227.894531 431.835938 226.328125 431.15625 C 224.609375 430.417969 222.34375 430.722656 220.628906 429.984375 C 219.382812 429.457031 218.582031 428.496094 217.492188 427.808594 C 216.238281 427.015625 214.71875 426.203125 213.402344 425.527344 C 212.554688 425.074219 211.371094 424.777344 210.613281 424.234375 C 210.164062 423.898438 209.683594 422.886719 209.25 422.679688 C 208.5 422.320312 207.347656 422.585938 206.492188 422.390625 C 205.195312 422.097656 203.945312 421.222656 203.082031 420.449219 C 202.511719 419.933594 202.25 419.238281 201.609375 418.765625 C 199.929688 417.542969 197.136719 416.941406 195.128906 416.183594 C 191.460938 414.78125 188.582031 413.5 184.492188 414.574219 C 181.117188 415.460938 178.394531 417.421875 175.050781 418.414062 C 173.144531 418.976562 172.785156 418.632812 171.160156 418.054688 C 168.609375 417.132812 166.101562 416.855469 163.191406 416.71875 C 160.558594 416.589844 157.078125 416.167969 154.484375 416.613281 C 152.507812 416.957031 152.300781 417.328125 150.980469 418.824219 C 148.890625 421.191406 148.074219 422.527344 144.664062 422.550781 C 141.480469 422.585938 138.304688 422.574219 135.140625 422.566406 C 131.046875 422.542969 130.035156 422.625 128.867188 426.183594 C 128.363281 427.679688 128.589844 428.578125 126.652344 428.554688 C 126.148438 428.554688 125.5625 428.152344 125.082031 428.035156 C 123.457031 427.65625 122.035156 427.578125 120.347656 427.601562 C 117.304688 427.648438 115.113281 426.839844 112.246094 426.738281 C 109.558594 426.648438 108.34375 426.921875 106.09375 427.960938 C 105.140625 428.394531 103.871094 428.816406 102.804688 429.082031 C 100.78125 429.578125 98.738281 429.867188 96.722656 430.386719 C 95.835938 430.617188 95.425781 431.128906 94.171875 431.042969 C 92.976562 430.960938 92.234375 430.539062 91.128906 430.15625 C 88.496094 429.234375 86.40625 429.273438 83.640625 429.996094 C 76.207031 431.9375 70.941406 436.085938 63.167969 435.164062 C 60.207031 434.804688 58.039062 432.9375 55.359375 432.609375 C 50.597656 432.027344 47.269531 437.074219 43.203125 435.613281 C 41.347656 434.957031 39.449219 433.875 37.660156 433.042969 C 35.515625 432.050781 33.023438 429.945312 30.734375 429.410156 C 27.855469 428.738281 24.582031 430.792969 21.765625 431.441406 C 16.796875 432.59375 17.820312 428.625 13.828125 427.074219 C 11.617188 426.199219 10.625 427.457031 8.714844 427.503906 C 7.3125 427.523438 6.082031 426.847656 4.578125 426.777344 C 2.070312 426.664062 -0.71875 426.320312 -3.167969 426.304688 C -3.511719 426.304688 -4.167969 426.386719 -4.984375 426.53125 Z M -4.96875 426.464844 "/></g></svg>