<?xml version="1.0" encoding="UTF-8"?>
<svg id="Capa_1" xmlns="http://www.w3.org/2000/svg" version="1.1" viewBox="0 0 1147.95 595.28">
  <!-- Generator: Adobe Illustrator 29.3.0, SVG Export Plug-In . SVG Version: 2.1.0 Build 146)  -->
  <defs>
    <style>
      .st0 {
        fill: #fff;
      }
    </style>
  </defs>
  <path class="st0" d="M24.44,408.27v-236.62s1081.25,0,1081.25,0v233.13c-.39.11-.86.26-1.45.47-3.36,1.16-4.84,2.1-8.4,2.25-3.68.18-5.02.2-6.9,3.22-.34-.29-1.45-.57-1.81-.95-2.74,2.46-6.35,7.76-10.26,8.75-1.38.35-3.25.06-4.68.03-2.82-.03-4.81.45-7.49.88-3.99.66-7.92,1.92-12,2.39-1.77.21-2.72-.44-3.99-.51-1.56-.12-2.15.18-3.92.89-3.36,1.33-4.17-.14-7.28-1.37-2.07-.82-3.99-1.56-5.76-2.82-.84-.6-1.95-2.1-2.93-2.51-1.31-.56-2.61-.02-3.99-.15-3.58-.36-2.25-1.36-4.38-2.78-1.61-1.07-4.29-1.59-6.11-2.52-2.23-1.13-4.43-2.48-6.85-3.66-2.77-1.36-5.65-3.53-8.8-3.08-2,.29-3.65,1.59-5.6,1.92-1.47.26-3.06.09-4.58.09-3.83,0-4-.2-6.74-1.93-3.36-2.14-7.24-.71-10.83-1.48-3.92-.83-8.22-3.64-12.68-1.53-1.38.65-2,2.21-3.22,2.69-1.25.48-4.06.05-5.35.05-4.27-.02-8.69-.33-12.93.09-2.66.26-5.06.97-7.72,1.03-6.95.18-14.19-1.25-21.01-2.13-1.05-.14-3.43-.57-4.36.06-.8.56-.97,3.11-1.86,4.05-.84.85-1.84,1.28-2.91,1.86-.63.35-1.47.44-2.06.82-.57.35-1.02,1.56-1.54,1.77-1.79.74-2.43.15-3.91,1.22-1.5,1.07-3.04,2.93-4,4.4-4.15-2.28-11.51-1.16-16.54-.86-2.09.12-5.33-.24-7.26.09-1.43.24-2.4.86-4.31.91-3.83.08-5.65.08-8.81-1.56-1.52-.79-2.77-1.45-4.59-1.71-1.91-.27-3.83.39-5.27-.69-.98-.72-.95-1.95-2.02-2.61-1.04-.63-2.66-.88-3.88-1.62-2-1.22-4.04-2.57-6.42-2.95-1.41-.21-3.22.05-4.65.03-1.56-.02-3.84.85-5.24.71-1.72-.18-2.72-2.13-3.92-2.96-1.32-.92-2.97-1.68-4.59-2.05-2.47-.59-4.54-1.27-7.19-1.21-4.42.09-3.52-1.24-6.38-3.37-3.24-2.4-9.4-.66-13.41-2.16-1.16-.44-1.88-1.24-3.06-1.71-2.36-.95-3.52-.02-5.94.38-2.59.42-3.15.23-5.2-.83-2.31-1.19-3.49-1.68-5.97-2.4-3.49-1.01-4.9-3.11-8.69-3.5-4.36-.44-9.73-.05-13.57,1.99-.91.47-1.77,1.18-2.68,1.54-1.93.76-2.41.2-3.92.24-3.02.08-4.84,1.01-7.74,1.95-2.02.65-3.09.82-4.61,2.27-1.39,1.33-1.82,4.06-3.33,5.04-1.38.89-2.77.51-4.45.51-3.2-.02-5.24.83-6.74,3.34-1.73,2.92-1.63,7.46-7.13,7.76-3.59.2-8.12-3.1-12.1-3.4-3.49-.26-7.2.06-10.69.09-1.36,0-2.56-.18-3.86.18-1.91.51-3.18,2.02-5.38,2.13-1.77.09-2.91-1.12-4.45-1.07-1.72.06-4.2,1.62-6.01,2.1-2.59.71-4.68,3.61-7.12,3.29-1.68-.23-2.27-1.96-3.97-2.13-3.04-.3-8.04,3.13-10.76,4.11-4.42,1.59-9.21,2.99-14.07,2.48-3.16-.33-4.86-2.79-7.85-2.72-1.43.03-2.38.77-3.93.44-1.89-.42-3.25-2.21-4.58-3.32-2.97-2.48-5.69-3.29-9.87-3.29-1.5,0-2.79.12-4.24-.24-1.13-.27-1.29-1-2.88-.94-3.92.18-4.86,3.47-8.83.97-4.06-2.57-5.45-4.47-10.76-3.5-8.38,1.56-16.79,4.11-24.87,5.97-2.82.65-5.24,1.04-7.9,2.19-1.27.53-2.79,1.01-3.97,1.62-1,.5-1.18,1.74-2.57,1.8-1.63.08-4.65-2.58-6.01-3.4-3.11-1.86-4.59-3.66-8.55-3.26-2.68.27-5.63,1.36-8.35,1.12-1.47-.14-2.54-1-3.92-1.15-1.88-.18-3.63.92-5.58,1.12-1.93.2-4.26.05-6.2-.02-4.47-.11-4.58-2.1-7.46-4.18-2.61-1.89-5.31-1.5-8.26-.83-3.99.91-3.43-1.53-6.88-3.1-1.47-.66-2.07-.79-4.04-.83-1.61-.03-3.22-.01-4.83.15-1.7.17-4.31,1.27-5.95,1.12-1.36-.11-2.4-1.04-3.74-1.27-1.59-.26-3.99-.11-5.6,0-2.57.17-4.59,1.43-6.97,1.8-2.15.32-2.47-.27-4.49-.97-2.13-.74-2.82-.47-5.13,0-3.56.73-7.03,1-10.58,1.56-5.06.8-5.06,3.16-7.54,6.59-2.13,2.95-4.61.94-6.92,2.73-1.07.83-.54,2.45-1.36,3.23-1.31,1.27-3.22.47-5.13.05-3.59-.83-5.11-.29-8.49.44-3.09.66-6.17.56-9.26,0-1.98-.35-3.7-1.27-5.77-1-3.15.42-5.63,2.63-8.96,3.13-3.9.59-8.67,2.36-12.59,2.36-3.52,0-5.74-2.98-8.65-4.43-3.02-1.51-6.35-.24-9.31-1-2.22-.56-3.13-2.27-5.18-3.16-2.25-.97-5.22-.57-7.47-1.54-1.63-.69-2.68-1.95-4.11-2.85-1.64-1.04-3.63-2.1-5.36-2.99-1.11-.59-2.66-.98-3.65-1.69-.59-.44-1.22-1.77-1.79-2.04-.98-.47-2.49-.12-3.61-.38-1.7-.38-3.34-1.53-4.47-2.54-.75-.68-1.09-1.59-1.93-2.21-2.2-1.6-5.86-2.39-8.49-3.38-4.81-1.84-8.58-3.52-13.94-2.11-4.42,1.16-7.99,3.73-12.37,5.03-2.5.74-2.97.29-5.1-.47-3.34-1.21-6.63-1.57-10.44-1.75-3.45-.17-8.01-.72-11.41-.14-2.59.45-2.86.94-4.59,2.9-2.74,3.1-3.81,4.85-8.28,4.88-4.17.05-8.33.03-12.48.02-5.36-.03-6.69.08-8.22,4.74-.66,1.96-.36,3.14-2.9,3.11-.66,0-1.43-.53-2.06-.68-2.13-.5-3.99-.6-6.2-.57-3.99.06-6.86-1-10.62-1.13-3.52-.12-5.11.24-8.06,1.6-1.25.57-2.91,1.12-4.31,1.47-2.65.65-5.33,1.03-7.97,1.71-1.16.3-1.7.97-3.34.86-1.57-.11-2.54-.66-3.99-1.16-3.45-1.21-6.19-1.16-9.81-.21-9.74,2.54-16.64,7.98-26.83,6.77-3.88-.47-6.72-2.92-10.23-3.35-6.24-.76-10.6,5.85-15.93,3.94-2.43-.86-4.92-2.28-7.26-3.37-2.81-1.3-6.08-4.06-9.08-4.76-3.77-.88-8.06,1.81-11.75,2.66-6.51,1.51-5.17-3.69-10.4-5.72-2.9-1.15-4.2.5-6.7.56-1.84.03-3.45-.86-5.42-.95-3.29-.15-6.94-.6-10.15-.62-.45,0-1.31.11-2.38.3Z"/>
</svg>