<?xml version="1.0" encoding="UTF-8"?>
<svg id="Capa_1" xmlns="http://www.w3.org/2000/svg" version="1.1" viewBox="0 0 595.28 841.89">
  <!-- Generator: Adobe Illustrator 29.3.0, SVG Export Plug-In . SVG Version: 2.1.0 Build 146)  -->
  <defs>
    <style>
      .st0 {
        fill: #fff;
      }
    </style>
  </defs>
  <path class="st0" d="M568.45,346.1v118.53s-541.62,0-541.62,0v-116.78c.2-.05.43-.13.73-.23,1.68-.58,2.43-1.05,4.21-1.13,1.84-.09,2.52-.1,3.46-1.61.17.14.73.29.9.48,1.37-1.23,3.18-3.89,5.14-4.38.69-.17,1.63-.03,2.35-.02,1.41.02,2.41-.23,3.75-.44,2-.33,3.97-.96,6.01-1.2.89-.11,1.36.22,2,.26.78.06,1.07-.09,1.96-.45,1.68-.67,2.09.07,3.64.69,1.04.41,2,.78,2.88,1.41.42.3.98,1.05,1.47,1.26.65.28,1.31,0,2,.08,1.79.18,1.13.68,2.19,1.39.81.54,2.15.79,3.06,1.26,1.12.57,2.22,1.24,3.43,1.83,1.39.68,2.83,1.77,4.41,1.54,1-.14,1.83-.79,2.8-.96.73-.13,1.53-.05,2.29-.05,1.92,0,2.01.1,3.38.97,1.68,1.07,3.63.36,5.43.74,1.96.42,4.12,1.82,6.35.76.69-.33,1-1.1,1.61-1.35.63-.24,2.03-.02,2.68-.02,2.14,0,4.35.17,6.47-.05,1.33-.13,2.53-.48,3.87-.51,3.48-.09,7.11.63,10.52,1.07.53.07,1.72.29,2.19-.03.4-.28.48-1.56.93-2.03.42-.42.92-.64,1.46-.93.31-.17.73-.22,1.03-.41.29-.17.51-.78.77-.89.9-.37,1.22-.08,1.96-.61.75-.54,1.52-1.47,2.01-2.2,2.08,1.14,5.77.58,8.28.43,1.05-.06,2.67.12,3.64-.05.72-.12,1.2-.43,2.16-.45,1.92-.04,2.83-.04,4.42.78.76.39,1.39.73,2.3.85.96.14,1.92-.2,2.64.35.49.36.47.98,1.01,1.31.52.32,1.33.44,1.94.81,1,.61,2.02,1.29,3.22,1.48.71.11,1.61-.02,2.33-.02.78,0,1.93-.42,2.62-.36.86.09,1.36,1.07,1.96,1.48.66.46,1.49.84,2.3,1.03,1.24.3,2.27.64,3.6.61,2.21-.05,1.76.62,3.2,1.69,1.62,1.2,4.71.33,6.72,1.08.58.22.94.62,1.53.86,1.18.48,1.76,0,2.97-.19,1.3-.21,1.58-.11,2.61.42,1.16.6,1.75.84,2.99,1.2,1.75.51,2.45,1.56,4.35,1.76,2.19.22,4.87.02,6.8-1,.46-.23.89-.59,1.34-.77.97-.38,1.21-.1,1.96-.12,1.51-.04,2.43-.51,3.88-.98,1.01-.33,1.55-.41,2.31-1.13.7-.67.91-2.04,1.67-2.53.69-.45,1.39-.26,2.23-.26,1.6,0,2.62-.42,3.38-1.67.87-1.46.82-3.74,3.57-3.89,1.8-.1,4.07,1.55,6.06,1.7,1.75.13,3.61-.03,5.36-.05.68,0,1.28.09,1.93-.09.96-.26,1.59-1.01,2.7-1.07.89-.05,1.46.56,2.23.54.86-.03,2.1-.81,3.01-1.05,1.3-.36,2.35-1.81,3.56-1.65.84.11,1.14.98,1.99,1.07,1.52.15,4.03-1.57,5.39-2.06,2.21-.79,4.61-1.5,7.05-1.24,1.59.17,2.44,1.4,3.93,1.36.72-.02,1.19-.39,1.97-.22.95.21,1.63,1.1,2.29,1.66,1.49,1.24,2.85,1.65,4.94,1.65.75,0,1.4-.06,2.12.12.56.14.64.5,1.44.47,1.96-.09,2.44-1.74,4.42-.48,2.03,1.29,2.73,2.24,5.39,1.76,4.2-.78,8.41-2.06,12.46-2.99,1.42-.33,2.62-.52,3.96-1.1.64-.26,1.4-.51,1.99-.81.5-.25.59-.87,1.29-.9.81-.04,2.33,1.29,3.01,1.7,1.56.93,2.3,1.83,4.28,1.63,1.34-.14,2.82-.68,4.18-.56.73.07,1.27.5,1.96.58.94.09,1.82-.46,2.79-.56.97-.1,2.13-.02,3.11,0,2.24.05,2.29,1.05,3.73,2.1,1.31.95,2.66.75,4.14.42,2-.45,1.72.76,3.45,1.55.73.33,1.04.39,2.02.42.81.02,1.61,0,2.42-.08.85-.08,2.16-.64,2.98-.56.68.05,1.2.52,1.87.64.8.13,2,.05,2.8,0,1.29-.08,2.3-.72,3.49-.9,1.07-.16,1.24.14,2.25.48,1.07.37,1.42.23,2.57,0,1.78-.36,3.52-.5,5.3-.78,2.53-.4,2.53-1.58,3.78-3.3,1.07-1.48,2.31-.47,3.47-1.37.54-.42.27-1.23.68-1.62.65-.64,1.61-.23,2.57-.02,1.8.42,2.56.14,4.25-.22,1.55-.33,3.09-.28,4.64,0,.99.17,1.85.64,2.89.5,1.58-.21,2.82-1.32,4.49-1.57,1.95-.29,4.34-1.18,6.3-1.18,1.76,0,2.87,1.49,4.33,2.22,1.51.76,3.18.12,4.67.5,1.11.28,1.57,1.13,2.6,1.58,1.13.48,2.62.29,3.74.77.81.35,1.34.98,2.06,1.43.82.52,1.82,1.05,2.69,1.5.56.3,1.33.49,1.83.85.3.22.61.89.9,1.02.49.23,1.24.06,1.81.19.85.19,1.67.76,2.24,1.27.38.34.55.79.97,1.1,1.1.8,2.94,1.2,4.25,1.69,2.41.92,4.3,1.76,6.99,1.06,2.21-.58,4-1.87,6.2-2.52,1.25-.37,1.49-.14,2.55.23,1.67.61,3.32.79,5.23.88,1.73.08,4.01.36,5.71.07,1.3-.23,1.43-.47,2.3-1.45,1.37-1.55,1.91-2.43,4.15-2.44,2.09-.02,4.17-.02,6.25,0,2.69.02,3.35-.04,4.12-2.38.33-.98.18-1.57,1.45-1.56.33,0,.72.26,1.03.34,1.07.25,2,.3,3.11.29,2-.03,3.44.5,5.32.57,1.76.06,2.56-.12,4.04-.8.63-.29,1.46-.56,2.16-.73,1.33-.33,2.67-.51,3.99-.85.58-.15.85-.48,1.67-.43.79.05,1.27.33,2,.58,1.73.61,3.1.58,4.92.11,4.88-1.27,8.34-3.99,13.44-3.39,1.94.23,3.37,1.46,5.12,1.68,3.13.38,5.31-2.93,7.98-1.97,1.22.43,2.46,1.14,3.64,1.69,1.41.65,3.04,2.04,4.55,2.38,1.89.44,4.04-.91,5.88-1.33,3.26-.76,2.59,1.85,5.21,2.87,1.45.57,2.1-.25,3.36-.28.92-.02,1.73.43,2.71.48,1.65.08,3.47.3,5.09.31.22,0,.65-.05,1.19-.15Z"/>
</svg>