<svg xmlns="http://www.w3.org/2000/svg" xmlns:xlink="http://www.w3.org/1999/xlink" width="1080" zoomAndPan="magnify" viewBox="0 0 810 809.999993" height="1080" preserveAspectRatio="xMidYMid meet" version="1.0"><path fill="#ffffff" d="M 1704.613281 314.078125 L 1704.613281 693.875 C 1704.613281 693.875 -30.710938 693.875 -30.710938 693.875 L -30.710938 319.683594 C -30.070312 319.523438 -29.335938 319.269531 -28.375 318.949219 C -22.992188 317.089844 -20.585938 315.585938 -14.882812 315.328125 C -8.988281 315.039062 -6.8125 315.007812 -3.800781 310.167969 C -3.253906 310.617188 -1.460938 311.097656 -0.914062 311.707031 C 3.472656 307.765625 9.273438 299.242188 15.554688 297.671875 C 17.761719 297.128906 20.773438 297.578125 23.082031 297.609375 C 27.601562 297.671875 30.804688 296.871094 35.097656 296.199219 C 41.503906 295.140625 47.816406 293.121094 54.351562 292.351562 C 57.203125 292 58.710938 293.058594 60.761719 293.1875 C 63.261719 293.378906 64.1875 292.898438 67.039062 291.746094 C 72.421875 289.597656 73.738281 291.96875 78.703125 293.957031 C 82.035156 295.269531 85.109375 296.453125 87.929688 298.472656 C 89.277344 299.433594 91.070312 301.835938 92.640625 302.511719 C 94.722656 303.40625 96.835938 302.511719 99.046875 302.765625 C 104.78125 303.34375 102.667969 304.945312 106.066406 307.222656 C 108.660156 308.953125 112.953125 309.753906 115.867188 311.257812 C 119.457031 313.085938 122.980469 315.230469 126.859375 317.121094 C 131.3125 319.300781 135.925781 322.792969 140.988281 322.058594 C 144.191406 321.609375 146.851562 319.523438 149.957031 318.980469 C 152.296875 318.5625 154.859375 318.820312 157.296875 318.820312 C 163.449219 318.820312 163.734375 319.140625 168.125 321.929688 C 173.507812 325.355469 179.753906 323.082031 185.523438 324.300781 C 191.800781 325.644531 198.722656 330.132812 205.867188 326.734375 C 208.078125 325.675781 209.070312 323.210938 211.027344 322.410156 C 213.042969 321.640625 217.53125 322.34375 219.613281 322.34375 C 226.46875 322.34375 233.550781 322.890625 240.34375 322.183594 C 244.605469 321.769531 248.449219 320.648438 252.742188 320.550781 C 263.890625 320.261719 275.523438 322.570312 286.445312 323.980469 C 288.144531 324.203125 291.957031 324.910156 293.464844 323.882812 C 294.746094 322.984375 295 318.882812 296.445312 317.378906 C 297.789062 316.03125 299.390625 315.328125 301.121094 314.398438 C 302.113281 313.855469 303.460938 313.695312 304.421875 313.085938 C 305.351562 312.539062 306.054688 310.585938 306.886719 310.234375 C 309.773438 309.046875 310.796875 309.976562 313.167969 308.277344 C 315.570312 306.546875 318.039062 303.570312 319.609375 301.230469 C 326.273438 304.882812 338.09375 303.085938 346.136719 302.605469 C 349.5 302.414062 354.691406 302.992188 357.800781 302.445312 C 360.105469 302.0625 361.644531 301.070312 364.71875 301.003906 C 370.871094 300.875 373.785156 300.875 378.882812 303.503906 C 381.316406 304.753906 383.335938 305.84375 386.25 306.226562 C 389.328125 306.675781 392.402344 305.585938 394.707031 307.347656 C 396.277344 308.503906 396.214844 310.488281 397.945312 311.546875 C 399.609375 312.574219 402.207031 312.957031 404.160156 314.140625 C 407.363281 316.097656 410.632812 318.277344 414.476562 318.882812 C 416.753906 319.238281 419.636719 318.820312 421.941406 318.820312 C 424.441406 318.820312 428.125 317.476562 430.335938 317.667969 C 433.09375 317.957031 434.695312 321.09375 436.617188 322.410156 C 438.730469 323.882812 441.390625 325.101562 443.984375 325.710938 C 447.957031 326.671875 451.257812 327.761719 455.519531 327.664062 C 462.601562 327.503906 461.160156 329.652344 465.773438 333.078125 C 470.964844 336.925781 480.863281 334.136719 487.304688 336.539062 C 489.160156 337.246094 490.316406 338.527344 492.207031 339.296875 C 495.984375 340.832031 497.84375 339.296875 501.722656 338.6875 C 505.886719 338.015625 506.785156 338.335938 510.082031 340.03125 C 513.800781 341.957031 515.691406 342.722656 519.664062 343.878906 C 525.269531 345.511719 527.511719 348.875 533.601562 349.515625 C 540.617188 350.222656 549.203125 349.582031 555.386719 346.3125 C 556.859375 345.574219 558.238281 344.421875 559.679688 343.847656 C 562.789062 342.628906 563.558594 343.523438 565.960938 343.460938 C 570.796875 343.332031 573.746094 341.828125 578.390625 340.320312 C 581.628906 339.265625 583.359375 339.007812 585.792969 336.699219 C 588.035156 334.554688 588.707031 330.164062 591.144531 328.59375 C 593.355469 327.152344 595.597656 327.761719 598.289062 327.761719 C 603.414062 327.761719 606.683594 326.414062 609.117188 322.410156 C 611.90625 317.730469 611.746094 310.425781 620.554688 309.945312 C 626.324219 309.625 633.597656 314.910156 639.972656 315.390625 C 645.578125 315.808594 651.539062 315.296875 657.144531 315.230469 C 659.324219 315.230469 661.246094 315.519531 663.328125 314.945312 C 666.402344 314.109375 668.421875 311.707031 671.980469 311.515625 C 674.832031 311.355469 676.65625 313.308594 679.125 313.246094 C 681.878906 313.148438 685.851562 310.648438 688.769531 309.878906 C 692.933594 308.726562 696.296875 304.082031 700.175781 304.59375 C 702.863281 304.945312 703.828125 307.734375 706.550781 308.023438 C 711.417969 308.503906 719.460938 302.992188 723.820312 301.421875 C 730.898438 298.890625 738.589844 296.617188 746.40625 297.449219 C 751.5 297.992188 754.222656 301.933594 759 301.804688 C 761.304688 301.742188 762.8125 300.554688 765.308594 301.101562 C 768.355469 301.773438 770.53125 304.625 772.648438 306.421875 C 777.421875 310.394531 781.777344 311.707031 788.476562 311.707031 C 790.878906 311.707031 792.960938 311.515625 795.265625 312.089844 C 797.0625 312.539062 797.316406 313.695312 799.882812 313.597656 C 806.160156 313.308594 807.699219 308.023438 814.042969 312.058594 C 820.546875 316.191406 822.789062 319.238281 831.3125 317.699219 C 844.769531 315.199219 858.257812 311.097656 871.234375 308.117188 C 875.78125 307.0625 879.628906 306.453125 883.921875 304.59375 C 885.972656 303.761719 888.40625 302.960938 890.296875 302 C 891.898438 301.199219 892.1875 299.210938 894.429688 299.113281 C 897.023438 298.988281 901.894531 303.25 904.074219 304.5625 C 909.070312 307.542969 911.441406 310.425781 917.785156 309.785156 C 922.078125 309.335938 926.820312 307.605469 931.179688 307.992188 C 933.519531 308.214844 935.246094 309.59375 937.457031 309.847656 C 940.46875 310.136719 943.289062 308.375 946.398438 308.054688 C 949.503906 307.734375 953.222656 307.992188 956.363281 308.054688 C 963.539062 308.214844 963.699219 311.417969 968.3125 314.785156 C 972.511719 317.828125 976.835938 317.1875 981.578125 316.128906 C 987.984375 314.6875 987.089844 318.5625 992.632812 321.097656 C 994.96875 322.152344 995.964844 322.34375 999.101562 322.441406 C 1001.699219 322.503906 1004.261719 322.441406 1006.855469 322.183594 C 1009.578125 321.929688 1013.777344 320.132812 1016.402344 320.390625 C 1018.582031 320.550781 1020.25 322.058594 1022.394531 322.441406 C 1024.957031 322.859375 1028.804688 322.601562 1031.367188 322.441406 C 1035.5 322.183594 1038.734375 320.132812 1042.546875 319.558594 C 1045.976562 319.046875 1046.519531 320.007812 1049.757812 321.097656 C 1053.1875 322.28125 1054.308594 321.832031 1057.992188 321.097656 C 1063.695312 319.941406 1069.269531 319.492188 1074.972656 318.597656 C 1083.078125 317.316406 1083.078125 313.535156 1087.082031 308.023438 C 1090.511719 303.28125 1094.484375 306.515625 1098.199219 303.632812 C 1099.929688 302.285156 1099.066406 299.691406 1100.378906 298.441406 C 1102.460938 296.390625 1105.539062 297.703125 1108.613281 298.378906 C 1114.382812 299.722656 1116.816406 298.828125 1122.230469 297.671875 C 1127.195312 296.617188 1132.132812 296.777344 1137.097656 297.671875 C 1140.269531 298.21875 1143.023438 299.722656 1146.355469 299.273438 C 1151.417969 298.601562 1155.390625 295.046875 1160.742188 294.246094 C 1166.988281 293.316406 1174.648438 290.464844 1180.925781 290.464844 C 1186.566406 290.464844 1190.121094 295.238281 1194.800781 297.578125 C 1199.636719 300.011719 1204.988281 297.960938 1209.761719 299.179688 C 1213.320312 300.078125 1214.792969 302.800781 1218.09375 304.242188 C 1221.714844 305.78125 1226.488281 305.171875 1230.074219 306.707031 C 1232.671875 307.832031 1234.367188 309.847656 1236.675781 311.289062 C 1239.304688 312.957031 1242.507812 314.65625 1245.292969 316.097656 C 1247.089844 317.058594 1249.554688 317.667969 1251.15625 318.820312 C 1252.117188 319.527344 1253.113281 321.671875 1254.042969 322.089844 C 1255.609375 322.828125 1258.015625 322.28125 1259.839844 322.699219 C 1262.5625 323.308594 1265.191406 325.132812 1267.015625 326.765625 C 1268.234375 327.855469 1268.78125 329.296875 1270.125 330.292969 C 1273.648438 332.855469 1279.542969 334.136719 1283.742188 335.707031 C 1291.464844 338.65625 1297.519531 341.347656 1306.136719 339.105469 C 1313.21875 337.246094 1318.953125 333.113281 1326.003906 331.027344 C 1330.007812 329.84375 1330.777344 330.582031 1334.171875 331.765625 C 1339.523438 333.71875 1344.808594 334.296875 1350.929688 334.585938 C 1356.472656 334.84375 1363.777344 335.738281 1369.222656 334.808594 C 1373.386719 334.074219 1373.804688 333.304688 1376.59375 330.164062 C 1380.980469 325.199219 1382.710938 322.378906 1389.890625 322.34375 C 1396.585938 322.28125 1403.25 322.28125 1409.914062 322.34375 C 1418.53125 322.410156 1420.648438 322.21875 1423.113281 314.71875 C 1424.171875 311.578125 1423.691406 309.6875 1427.757812 309.722656 C 1428.816406 309.722656 1430.066406 310.554688 1431.058594 310.808594 C 1434.488281 311.613281 1437.46875 311.773438 1441.023438 311.738281 C 1447.433594 311.644531 1452.046875 313.339844 1458.070312 313.566406 C 1463.707031 313.757812 1466.269531 313.179688 1471.011719 311.003906 C 1473.03125 310.074219 1475.691406 309.207031 1477.933594 308.664062 C 1482.195312 307.605469 1486.488281 307.03125 1490.71875 305.941406 C 1492.574219 305.460938 1493.441406 304.402344 1496.066406 304.5625 C 1498.597656 304.722656 1500.136719 305.621094 1502.476562 306.421875 C 1508.019531 308.375 1512.40625 308.277344 1518.238281 306.773438 C 1533.875 302.703125 1544.960938 293.988281 1561.300781 295.910156 C 1567.515625 296.648438 1572.097656 300.589844 1577.703125 301.292969 C 1587.734375 302.511719 1594.71875 291.90625 1603.273438 294.980469 C 1607.179688 296.359375 1611.152344 298.632812 1614.933594 300.398438 C 1619.453125 302.480469 1624.675781 306.933594 1629.511719 308.023438 C 1635.566406 309.433594 1642.457031 305.105469 1648.351562 303.761719 C 1658.796875 301.324219 1656.648438 309.6875 1665.042969 312.957031 C 1669.691406 314.785156 1671.773438 312.15625 1675.808594 312.058594 C 1678.757812 311.996094 1681.351562 313.4375 1684.492188 313.597656 C 1689.777344 313.855469 1695.609375 314.558594 1700.800781 314.589844 C 1701.503906 314.589844 1702.882812 314.429688 1704.613281 314.109375 Z M 1704.613281 314.078125 " fill-opacity="1" fill-rule="nonzero"/></svg>