<svg xmlns="http://www.w3.org/2000/svg" xmlns:xlink="http://www.w3.org/1999/xlink" width="1080" zoomAndPan="magnify" viewBox="0 0 810 809.999993" height="1080" preserveAspectRatio="xMidYMid meet" version="1.0"><path fill="#ffffff" d="M 816.652344 338.667969 L 816.652344 518.699219 C 816.652344 518.699219 -6.3125 518.699219 -6.3125 518.699219 L -6.3125 341.328125 C -6.007812 341.25 -5.660156 341.128906 -5.203125 340.976562 C -2.652344 340.097656 -1.511719 339.382812 1.191406 339.261719 C 3.988281 339.125 5.023438 339.109375 6.449219 336.816406 C 6.707031 337.027344 7.558594 337.253906 7.816406 337.542969 C 9.898438 335.675781 12.648438 331.636719 15.628906 330.890625 C 16.675781 330.632812 18.105469 330.847656 19.199219 330.859375 C 21.339844 330.890625 22.859375 330.511719 24.894531 330.191406 C 27.933594 329.691406 30.929688 328.734375 34.027344 328.371094 C 35.378906 328.203125 36.09375 328.703125 37.066406 328.765625 C 38.253906 328.855469 38.691406 328.628906 40.046875 328.082031 C 42.597656 327.0625 43.222656 328.1875 45.574219 329.128906 C 47.15625 329.753906 48.613281 330.3125 49.953125 331.269531 C 50.589844 331.726562 51.441406 332.867188 52.183594 333.183594 C 53.171875 333.609375 54.175781 333.183594 55.222656 333.304688 C 57.945312 333.578125 56.941406 334.339844 58.550781 335.417969 C 59.78125 336.238281 61.820312 336.617188 63.203125 337.332031 C 64.902344 338.199219 66.574219 339.214844 68.414062 340.109375 C 70.523438 341.144531 72.714844 342.800781 75.113281 342.449219 C 76.632812 342.238281 77.894531 341.25 79.367188 340.992188 C 80.476562 340.792969 81.691406 340.917969 82.847656 340.917969 C 85.765625 340.917969 85.902344 341.066406 87.984375 342.390625 C 90.535156 344.015625 93.5 342.9375 96.234375 343.511719 C 99.210938 344.152344 102.496094 346.277344 105.882812 344.667969 C 106.929688 344.167969 107.402344 342.996094 108.328125 342.617188 C 109.285156 342.253906 111.414062 342.585938 112.402344 342.585938 C 115.652344 342.585938 119.011719 342.84375 122.230469 342.511719 C 124.253906 342.3125 126.078125 341.78125 128.113281 341.738281 C 133.398438 341.601562 138.914062 342.691406 144.097656 343.363281 C 144.902344 343.46875 146.710938 343.800781 147.425781 343.316406 C 148.03125 342.890625 148.152344 340.945312 148.839844 340.234375 C 149.476562 339.59375 150.234375 339.261719 151.054688 338.820312 C 151.527344 338.5625 152.164062 338.484375 152.621094 338.199219 C 153.0625 337.9375 153.394531 337.011719 153.792969 336.84375 C 155.160156 336.285156 155.644531 336.722656 156.769531 335.917969 C 157.910156 335.097656 159.078125 333.6875 159.824219 332.578125 C 162.984375 334.308594 168.589844 333.457031 172.40625 333.230469 C 174 333.140625 176.460938 333.414062 177.933594 333.15625 C 179.03125 332.972656 179.757812 332.5 181.21875 332.472656 C 184.136719 332.410156 185.515625 332.410156 187.933594 333.65625 C 189.089844 334.25 190.046875 334.765625 191.429688 334.945312 C 192.886719 335.160156 194.34375 334.644531 195.441406 335.480469 C 196.183594 336.027344 196.152344 336.96875 196.972656 337.46875 C 197.765625 337.953125 198.996094 338.136719 199.921875 338.699219 C 201.441406 339.625 202.992188 340.65625 204.816406 340.945312 C 205.894531 341.113281 207.261719 340.917969 208.355469 340.917969 C 209.539062 340.917969 211.289062 340.277344 212.335938 340.371094 C 213.644531 340.507812 214.402344 341.996094 215.3125 342.617188 C 216.316406 343.316406 217.578125 343.894531 218.808594 344.183594 C 220.691406 344.636719 222.257812 345.152344 224.277344 345.109375 C 227.636719 345.03125 226.953125 346.050781 229.140625 347.675781 C 231.601562 349.496094 236.296875 348.175781 239.351562 349.316406 C 240.234375 349.648438 240.78125 350.257812 241.675781 350.621094 C 243.46875 351.351562 244.351562 350.621094 246.1875 350.332031 C 248.164062 350.015625 248.589844 350.167969 250.15625 350.972656 C 251.917969 351.882812 252.8125 352.246094 254.699219 352.792969 C 257.355469 353.570312 258.421875 355.164062 261.308594 355.46875 C 264.636719 355.800781 268.707031 355.496094 271.640625 353.949219 C 272.339844 353.597656 272.992188 353.050781 273.675781 352.777344 C 275.148438 352.203125 275.515625 352.625 276.65625 352.597656 C 278.949219 352.535156 280.347656 351.820312 282.550781 351.109375 C 284.085938 350.605469 284.90625 350.484375 286.058594 349.390625 C 287.125 348.375 287.441406 346.292969 288.597656 345.546875 C 289.644531 344.867188 290.710938 345.152344 291.984375 345.152344 C 294.417969 345.152344 295.964844 344.515625 297.121094 342.617188 C 298.441406 340.398438 298.367188 336.9375 302.546875 336.707031 C 305.28125 336.558594 308.730469 339.0625 311.753906 339.292969 C 314.414062 339.488281 317.238281 339.246094 319.898438 339.214844 C 320.929688 339.214844 321.84375 339.351562 322.832031 339.078125 C 324.289062 338.683594 325.246094 337.542969 326.933594 337.453125 C 328.285156 337.378906 329.152344 338.304688 330.320312 338.273438 C 331.628906 338.226562 333.511719 337.042969 334.894531 336.679688 C 336.871094 336.132812 338.464844 333.929688 340.304688 334.171875 C 341.582031 334.339844 342.035156 335.660156 343.328125 335.796875 C 345.636719 336.027344 349.453125 333.414062 351.519531 332.667969 C 354.875 331.46875 358.523438 330.390625 362.230469 330.785156 C 364.644531 331.042969 365.9375 332.910156 368.203125 332.851562 C 369.296875 332.820312 370.007812 332.257812 371.195312 332.515625 C 372.636719 332.835938 373.671875 334.1875 374.675781 335.039062 C 376.9375 336.921875 379.003906 337.542969 382.179688 337.542969 C 383.320312 337.542969 384.308594 337.453125 385.402344 337.726562 C 386.253906 337.9375 386.375 338.484375 387.589844 338.441406 C 390.566406 338.304688 391.296875 335.796875 394.304688 337.710938 C 397.390625 339.671875 398.453125 341.113281 402.496094 340.382812 C 408.878906 339.199219 415.273438 337.253906 421.429688 335.84375 C 423.585938 335.34375 425.410156 335.054688 427.445312 334.171875 C 428.417969 333.777344 429.570312 333.398438 430.46875 332.941406 C 431.226562 332.5625 431.363281 331.621094 432.429688 331.574219 C 433.660156 331.515625 435.96875 333.535156 437.003906 334.15625 C 439.371094 335.570312 440.496094 336.9375 443.503906 336.632812 C 445.542969 336.421875 447.789062 335.601562 449.855469 335.78125 C 450.964844 335.890625 451.785156 336.542969 452.835938 336.664062 C 454.261719 336.800781 455.601562 335.964844 457.074219 335.8125 C 458.546875 335.660156 460.3125 335.78125 461.800781 335.8125 C 465.203125 335.890625 465.277344 337.40625 467.46875 339.003906 C 469.457031 340.445312 471.507812 340.140625 473.757812 339.640625 C 476.796875 338.957031 476.371094 340.792969 479 341.996094 C 480.109375 342.496094 480.582031 342.585938 482.070312 342.632812 C 483.300781 342.664062 484.515625 342.632812 485.746094 342.511719 C 487.039062 342.390625 489.027344 341.539062 490.273438 341.660156 C 491.308594 341.738281 492.097656 342.449219 493.117188 342.632812 C 494.332031 342.832031 496.15625 342.707031 497.371094 342.632812 C 499.332031 342.511719 500.863281 341.539062 502.671875 341.265625 C 504.296875 341.023438 504.558594 341.476562 506.089844 341.996094 C 507.71875 342.558594 508.25 342.34375 509.996094 341.996094 C 512.703125 341.449219 515.34375 341.234375 518.050781 340.808594 C 521.894531 340.203125 521.894531 338.410156 523.792969 335.796875 C 525.417969 333.550781 527.304688 335.082031 529.066406 333.71875 C 529.886719 333.078125 529.476562 331.847656 530.097656 331.257812 C 531.085938 330.285156 532.546875 330.90625 534.003906 331.226562 C 536.738281 331.863281 537.894531 331.4375 540.460938 330.890625 C 542.816406 330.390625 545.15625 330.464844 547.511719 330.890625 C 549.015625 331.148438 550.324219 331.863281 551.902344 331.652344 C 554.304688 331.332031 556.1875 329.644531 558.726562 329.265625 C 561.6875 328.828125 565.320312 327.472656 568.296875 327.472656 C 570.972656 327.472656 572.660156 329.738281 574.878906 330.847656 C 577.171875 332 579.710938 331.027344 581.972656 331.605469 C 583.660156 332.03125 584.359375 333.320312 585.925781 334.003906 C 587.640625 334.734375 589.90625 334.445312 591.605469 335.175781 C 592.835938 335.707031 593.644531 336.664062 594.738281 337.347656 C 595.984375 338.136719 597.503906 338.941406 598.824219 339.625 C 599.675781 340.082031 600.84375 340.371094 601.605469 340.917969 C 602.058594 341.25 602.53125 342.269531 602.972656 342.464844 C 603.714844 342.816406 604.855469 342.558594 605.722656 342.753906 C 607.015625 343.042969 608.257812 343.910156 609.125 344.683594 C 609.703125 345.199219 609.960938 345.882812 610.601562 346.355469 C 612.269531 347.570312 615.066406 348.175781 617.058594 348.921875 C 620.71875 350.316406 623.589844 351.59375 627.679688 350.53125 C 631.035156 349.648438 633.757812 347.691406 637.097656 346.703125 C 639 346.140625 639.363281 346.492188 640.972656 347.050781 C 643.511719 347.980469 646.019531 348.253906 648.921875 348.390625 C 651.550781 348.511719 655.011719 348.9375 657.597656 348.496094 C 659.570312 348.144531 659.769531 347.78125 661.089844 346.292969 C 663.171875 343.9375 663.992188 342.601562 667.398438 342.585938 C 670.574219 342.558594 673.734375 342.558594 676.894531 342.585938 C 680.980469 342.617188 681.984375 342.527344 683.152344 338.972656 C 683.65625 337.484375 683.425781 336.585938 685.355469 336.601562 C 685.859375 336.601562 686.449219 336.996094 686.921875 337.121094 C 688.546875 337.5 689.960938 337.574219 691.648438 337.558594 C 694.6875 337.515625 696.875 338.320312 699.730469 338.425781 C 702.40625 338.515625 703.621094 338.242188 705.871094 337.210938 C 706.828125 336.769531 708.085938 336.359375 709.152344 336.101562 C 711.171875 335.601562 713.207031 335.328125 715.214844 334.8125 C 716.09375 334.582031 716.503906 334.082031 717.75 334.15625 C 718.953125 334.234375 719.679688 334.660156 720.789062 335.039062 C 723.417969 335.964844 725.5 335.917969 728.265625 335.207031 C 735.679688 333.277344 740.9375 329.144531 748.6875 330.054688 C 751.636719 330.40625 753.808594 332.273438 756.46875 332.609375 C 761.222656 333.183594 764.535156 328.15625 768.59375 329.617188 C 770.445312 330.269531 772.332031 331.347656 774.125 332.183594 C 776.265625 333.171875 778.742188 335.28125 781.035156 335.796875 C 783.910156 336.464844 787.175781 334.414062 789.972656 333.777344 C 794.925781 332.625 793.90625 336.585938 797.886719 338.136719 C 800.089844 339.003906 801.078125 337.757812 802.992188 337.710938 C 804.390625 337.679688 805.621094 338.363281 807.109375 338.441406 C 809.617188 338.5625 812.382812 338.894531 814.84375 338.910156 C 815.179688 338.910156 815.832031 338.835938 816.652344 338.683594 Z M 816.652344 338.667969 " fill-opacity="1" fill-rule="nonzero"/></svg>