<svg xmlns="http://www.w3.org/2000/svg" xmlns:xlink="http://www.w3.org/1999/xlink" width="1080" zoomAndPan="magnify" viewBox="0 0 810 809.999993" height="1080" preserveAspectRatio="xMidYMid meet" version="1.0"><path fill="#c58b2b" d="M 436.039062 85.734375 L 436.167969 84.210938 L 434.664062 84.023438 C 421.804688 82.523438 411.902344 90.753906 405.921875 97.757812 C 407.339844 93.046875 408.589844 88.003906 409.632812 82.628906 C 429.726562 63.976562 412.882812 34.011719 412.71875 33.699219 L 411.488281 31.53125 L 410.089844 33.59375 C 393.8125 57.371094 404.441406 78.355469 406.566406 82.085938 C 405.316406 88.527344 403.753906 94.464844 401.960938 99.925781 C 402.503906 78.480469 382.617188 69.957031 382.390625 69.875 L 380.535156 69.105469 L 380.242188 71.105469 C 376.636719 96.382812 398.605469 108.09375 398.8125 108.199219 C 398.8125 108.199219 398.273438 109.21875 398.273438 109.21875 L 398.523438 109.21875 C 394.539062 118.824219 389.832031 126.746094 384.933594 133.246094 C 390.207031 105.90625 367.070312 95.195312 366.820312 95.089844 L 364.984375 94.277344 L 364.628906 96.257812 C 359.941406 123.078125 377.011719 135.894531 380.804688 138.394531 C 373.820312 146.480469 366.820312 151.875 361.292969 155.335938 C 372.78125 133.328125 355.519531 118.179688 355.355469 118.011719 L 353.730469 116.636719 L 352.894531 118.597656 C 343.871094 139.8125 353.269531 154.730469 355.980469 158.378906 C 352.726562 160.046875 350.683594 160.710938 350.601562 160.753906 L 351.539062 163.734375 C 351.664062 163.691406 354.792969 162.648438 359.585938 159.984375 C 368.527344 166.796875 376.550781 169.046875 383.242188 169.046875 C 396.5 169.046875 404.609375 160.171875 404.734375 160.046875 L 405.816406 158.816406 L 404.546875 157.792969 C 393.375 148.792969 378.386719 151.023438 368.902344 153.875 C 373.738281 150.230469 379.117188 145.355469 384.410156 138.976562 L 384.640625 139.039062 C 389.246094 140.144531 393.5 140.601562 397.355469 140.601562 C 420.761719 140.601562 430.871094 123.429688 430.996094 123.242188 L 431.996094 121.492188 L 430.058594 120.953125 C 413.570312 116.367188 399 124.285156 390.808594 130.414062 C 394.832031 124.390625 398.648438 117.367188 401.941406 109.199219 C 433.644531 108.175781 436.019531 85.984375 436.039062 85.753906 Z M 359.105469 152.730469 C 359.230469 141.332031 357.460938 129.828125 356.3125 123.617188 C 360.191406 128.597656 365.714844 138.996094 359.105469 152.730469 Z M 354.25 123.992188 C 355.4375 130.351562 357.3125 142.457031 356.980469 154.148438 C 354.105469 149.1875 349.664062 138.351562 354.25 123.992188 Z M 364.839844 159.835938 C 369.488281 160.171875 376.449219 160.273438 383.222656 160.273438 C 389.996094 160.273438 396.207031 160.171875 400.042969 160.109375 C 395.019531 164.109375 382.347656 171.171875 364.859375 159.835938 Z M 399.3125 158.042969 C 391.789062 158.167969 375.949219 158.378906 366.796875 157.878906 C 374.425781 155.210938 388.414062 151.898438 399.3125 158.042969 Z M 406.691406 105.675781 C 415.574219 101.03125 428.058594 91.214844 432.457031 87.691406 C 431.121094 92.507812 425.933594 103.488281 406.691406 105.675781 Z M 429.871094 87.089844 C 424.492188 91.339844 412.757812 100.339844 404.902344 104.257812 C 409.046875 98.339844 417.949219 88.046875 429.871094 87.089844 Z M 409.714844 78.066406 C 410.863281 65.519531 411.527344 46.328125 411.757812 38.929688 C 415.113281 46.617188 421.097656 64.851562 409.714844 78.066406 Z M 409.632812 40.386719 C 409.359375 48.515625 408.734375 65.707031 407.695312 77.398438 C 404.921875 71.019531 400.855469 56.808594 409.632812 40.386719 Z M 398.773438 101.050781 C 395.292969 92.839844 388.640625 81.085938 385.078125 74.917969 C 390.558594 78.417969 399.710938 86.503906 398.773438 101.050781 Z M 382.992188 75.5 C 386.765625 82.003906 394.519531 95.714844 397.648438 103.84375 C 392.6875 100.382812 382.453125 91.277344 382.992188 75.5 Z M 382.015625 131.703125 C 378.761719 119.886719 372.445312 106.59375 369.175781 100.070312 C 374.925781 103.988281 385.097656 113.65625 382.015625 131.703125 Z M 367.195312 100.777344 C 370.613281 107.53125 377.574219 122.140625 380.574219 134.414062 C 375.636719 130.621094 365.296875 120.222656 367.195312 100.777344 Z M 388.496094 136.601562 C 399.523438 134.578125 417.65625 128.058594 425.828125 124.992188 C 421.136719 130.496094 409.507812 140.414062 388.496094 136.601562 Z M 424.972656 123.078125 C 417.59375 125.828125 402.273438 131.351562 391.519531 133.851562 C 398.3125 128.578125 410.820312 121.078125 424.972656 123.078125 Z M 424.972656 123.078125 " fill-opacity="1" fill-rule="nonzero"/><path fill="#c58b2b" d="M 436.957031 330.175781 L 436.125 328.214844 L 434.5 329.589844 C 434.3125 329.757812 417.050781 344.90625 428.558594 366.914062 C 423.035156 363.453125 416.03125 358.058594 409.046875 349.972656 C 412.863281 347.492188 429.914062 334.675781 425.222656 307.835938 L 424.867188 305.855469 L 423.035156 306.667969 C 422.785156 306.773438 399.648438 317.484375 404.921875 344.824219 C 400.042969 338.320312 395.332031 330.402344 391.332031 320.796875 L 391.582031 320.796875 C 391.582031 320.796875 391.039062 319.777344 391.039062 319.777344 C 391.269531 319.652344 413.238281 307.9375 409.609375 282.660156 L 409.320312 280.660156 L 407.464844 281.433594 C 407.234375 281.515625 387.347656 290.039062 387.890625 311.480469 C 386.097656 306 384.535156 300.082031 383.285156 293.644531 C 385.433594 289.914062 396.042969 268.929688 379.761719 245.152344 L 378.367188 243.089844 L 377.136719 245.253906 C 376.96875 245.546875 360.128906 275.511719 380.222656 294.183594 C 381.261719 299.5625 382.511719 304.605469 383.929688 309.3125 C 377.949219 302.3125 368.046875 294.082031 355.1875 295.582031 L 353.6875 295.769531 L 353.8125 297.289062 C 353.8125 297.519531 356.210938 319.714844 387.914062 320.734375 C 391.207031 328.921875 395.019531 335.945312 399.042969 341.949219 C 390.851562 335.84375 376.28125 327.902344 359.792969 332.488281 L 357.855469 333.027344 L 358.855469 334.78125 C 358.980469 334.988281 369.089844 352.136719 392.5 352.136719 C 396.375 352.136719 400.605469 351.660156 405.210938 350.574219 L 405.441406 350.511719 C 410.734375 356.890625 416.113281 361.765625 420.949219 365.414062 C 411.464844 362.558594 396.480469 360.328125 385.308594 369.332031 L 384.035156 370.351562 L 385.121094 371.582031 C 385.246094 371.726562 393.351562 380.582031 406.609375 380.582031 C 413.300781 380.582031 421.324219 378.3125 430.265625 371.519531 C 435.039062 374.1875 438.1875 375.226562 438.3125 375.269531 L 439.25 372.289062 C 439.25 372.289062 437.125 371.582031 433.871094 369.914062 C 436.582031 366.265625 445.984375 351.367188 436.957031 330.132812 Z M 409.277344 346.011719 C 412.257812 333.738281 419.242188 319.109375 422.660156 312.355469 C 424.554688 331.800781 414.21875 342.21875 409.277344 346.011719 Z M 420.679688 311.691406 C 417.386719 318.210938 411.089844 331.488281 407.839844 343.300781 C 404.773438 325.320312 414.90625 315.628906 420.679688 311.691406 Z M 392.207031 315.421875 C 395.332031 307.292969 403.085938 293.582031 406.859375 287.078125 C 407.402344 302.855469 397.167969 311.960938 392.207031 315.421875 Z M 404.796875 286.496094 C 401.210938 292.664062 394.582031 304.417969 391.101562 312.628906 C 390.164062 298.082031 399.3125 289.996094 404.796875 286.496094 Z M 382.179688 289.078125 C 381.136719 277.367188 380.492188 260.09375 380.222656 251.964844 C 389.183594 268.617188 384.996094 282.785156 382.179688 289.078125 Z M 378.09375 250.527344 C 378.324219 257.925781 378.992188 277.097656 380.136719 289.664062 C 368.757812 276.453125 374.738281 258.21875 378.09375 250.527344 Z M 384.953125 315.859375 C 377.074219 311.917969 365.316406 302.917969 359.960938 298.664062 C 371.863281 299.644531 380.785156 309.941406 384.953125 315.859375 Z M 357.398438 299.289062 C 361.796875 302.8125 374.28125 312.628906 383.160156 317.273438 C 363.921875 315.085938 358.730469 304.105469 357.398438 299.289062 Z M 398.355469 345.449219 C 387.601562 342.949219 372.28125 337.445312 364.902344 334.675781 C 379.074219 332.675781 391.582031 340.175781 398.355469 345.449219 Z M 364.046875 336.59375 C 372.21875 339.65625 390.351562 346.199219 401.378906 348.199219 C 380.386719 352.011719 368.734375 342.09375 364.046875 336.59375 Z M 432.871094 365.808594 C 432.539062 354.078125 434.414062 341.949219 435.601562 335.570312 C 440.273438 350.117188 435.789062 360.890625 432.871094 365.808594 Z M 433.5625 335.21875 C 432.414062 341.425781 430.621094 352.929688 430.765625 364.328125 C 424.160156 350.597656 429.683594 340.199219 433.5625 335.21875 Z M 423.078125 369.476562 C 413.90625 369.976562 398.085938 369.769531 390.558594 369.644531 C 401.460938 363.515625 415.449219 366.828125 423.078125 369.476562 Z M 389.832031 371.707031 C 393.644531 371.769531 400.042969 371.871094 406.652344 371.871094 C 413.257812 371.871094 420.386719 371.769531 425.035156 371.433594 C 407.546875 382.773438 394.875 375.707031 389.851562 371.707031 Z M 389.832031 371.707031 " fill-opacity="1" fill-rule="nonzero"/><path fill="#c58b2b" d="M 466.492188 713.277344 C 466.492188 713.046875 464.097656 690.855469 432.394531 689.855469 C 429.101562 681.664062 425.285156 674.640625 421.261719 668.621094 C 427.746094 673.476562 438.230469 679.457031 450.527344 679.457031 C 453.738281 679.457031 457.09375 679.039062 460.511719 678.101562 L 462.449219 677.558594 L 461.449219 675.808594 C 461.324219 675.578125 447.589844 652.300781 415.09375 660.011719 L 414.863281 660.074219 C 409.570312 653.699219 404.191406 648.824219 399.355469 645.175781 C 403.753906 646.488281 409.320312 647.695312 415.15625 647.695312 C 421.910156 647.695312 429.015625 646.09375 435 641.257812 L 436.269531 640.238281 L 435.1875 639.007812 C 435 638.796875 416.699219 618.792969 390.039062 639.070312 C 385.265625 636.402344 382.117188 635.359375 381.992188 635.320312 L 381.054688 638.296875 C 381.054688 638.296875 383.179688 639.007812 386.433594 640.675781 C 383.722656 644.320312 374.324219 659.222656 383.347656 680.457031 L 384.183594 682.414062 L 385.808594 681.039062 C 385.996094 680.871094 403.253906 665.722656 391.75 643.71875 C 397.273438 647.175781 404.273438 652.574219 411.257812 660.660156 C 407.445312 663.140625 390.394531 675.953125 395.082031 702.796875 L 395.4375 704.773438 L 397.273438 703.960938 C 397.523438 703.859375 420.660156 693.148438 415.386719 665.804688 C 420.28125 672.308594 424.972656 680.226562 428.976562 689.832031 L 428.726562 689.832031 C 428.726562 689.832031 429.265625 690.855469 429.265625 690.855469 C 429.039062 690.980469 407.066406 702.691406 410.695312 727.96875 L 410.988281 729.96875 L 412.84375 729.199219 C 413.070312 729.113281 432.957031 720.589844 432.414062 699.148438 C 434.207031 704.628906 435.769531 710.546875 437.019531 716.988281 C 434.875 720.714844 424.265625 741.703125 440.542969 765.480469 L 441.941406 767.542969 L 443.171875 765.375 C 443.335938 765.082031 460.179688 735.117188 440.085938 716.445312 C 439.042969 711.089844 437.8125 706.046875 436.375 701.335938 C 441.855469 707.777344 450.671875 715.214844 462.035156 715.214844 C 463.035156 715.214844 464.078125 715.152344 465.117188 715.027344 L 466.621094 714.839844 L 466.496094 713.320312 Z M 397.230469 641.132812 C 406.402344 640.632812 422.222656 640.839844 429.746094 640.964844 C 418.84375 647.09375 404.859375 643.777344 397.230469 641.132812 Z M 430.476562 638.882812 C 422.742188 638.734375 404.484375 638.484375 395.292969 639.152344 C 412.78125 627.816406 425.453125 634.882812 430.476562 638.882812 Z M 387.433594 644.78125 C 387.765625 656.511719 385.890625 668.640625 384.703125 675.015625 C 380.035156 660.472656 384.515625 649.699219 387.433594 644.78125 Z M 386.746094 675.371094 C 387.890625 669.160156 389.683594 657.65625 389.539062 646.257812 C 396.144531 659.992188 390.621094 670.390625 386.746094 675.371094 Z M 462.910156 711.316406 C 458.511719 707.796875 446.023438 697.980469 437.144531 693.335938 C 456.382812 695.523438 461.574219 706.503906 462.910156 711.316406 Z M 421.972656 665.160156 C 432.726562 667.660156 448.046875 673.183594 455.425781 675.933594 C 441.25 677.933594 428.746094 670.433594 421.972656 665.160156 Z M 456.28125 674.015625 C 448.109375 670.953125 429.976562 664.410156 418.949219 662.410156 C 439.9375 658.617188 451.589844 668.535156 456.28125 674.015625 Z M 411.027344 664.578125 C 408.046875 676.851562 401.066406 691.480469 397.648438 698.230469 C 395.75 678.789062 406.089844 668.371094 411.027344 664.578125 Z M 399.648438 698.898438 C 402.941406 692.375 409.234375 679.101562 412.488281 667.285156 C 415.550781 685.269531 405.421875 694.960938 399.648438 698.898438 Z M 428.097656 695.167969 C 424.972656 703.296875 417.21875 717.007812 413.445312 723.507812 C 412.902344 707.734375 423.136719 698.628906 428.097656 695.167969 Z M 415.53125 724.09375 C 419.117188 717.925781 425.746094 706.171875 429.226562 697.960938 C 430.164062 712.507812 421.011719 720.589844 415.53125 724.09375 Z M 438.144531 721.507812 C 439.1875 733.21875 439.835938 750.496094 440.105469 758.621094 C 431.144531 741.972656 435.332031 727.800781 438.144531 721.507812 Z M 442.210938 760.082031 C 441.980469 752.683594 441.316406 733.511719 440.167969 720.945312 C 451.550781 734.15625 445.566406 752.390625 442.210938 760.082031 Z M 435.351562 694.730469 C 443.253906 698.667969 455.007812 707.691406 460.367188 711.945312 C 448.441406 710.984375 439.523438 700.667969 435.351562 694.730469 Z M 435.351562 694.730469 " fill-opacity="1" fill-rule="nonzero"/><path fill="#c58b2b" d="M 433.875 447.246094 C 437.125 445.582031 439.167969 444.914062 439.25 444.871094 L 438.3125 441.890625 C 438.1875 441.933594 435.0625 442.976562 430.265625 445.644531 C 403.609375 425.367188 385.308594 445.371094 385.121094 445.582031 L 384.035156 446.808594 L 385.308594 447.832031 C 391.308594 452.664062 398.398438 454.269531 405.152344 454.269531 C 410.988281 454.269531 416.550781 453.082031 420.949219 451.75 C 416.113281 455.394531 410.738281 460.273438 405.441406 466.648438 L 405.214844 466.585938 C 372.71875 458.875 358.980469 482.152344 358.855469 482.382812 L 357.855469 484.132812 L 359.792969 484.675781 C 363.214844 485.632812 366.570312 486.027344 369.777344 486.027344 C 382.078125 486.027344 392.5625 480.046875 399.042969 475.191406 C 395.019531 481.214844 391.207031 488.238281 387.914062 496.425781 C 356.210938 497.449219 353.832031 519.640625 353.8125 519.851562 L 353.6875 521.371094 L 355.1875 521.558594 C 356.230469 521.683594 357.273438 521.746094 358.273438 521.746094 C 369.632812 521.746094 378.429688 514.285156 383.929688 507.847656 C 382.515625 512.554688 381.261719 517.578125 380.222656 522.953125 C 360.148438 541.605469 376.96875 571.570312 377.136719 571.886719 L 378.367188 574.050781 L 379.761719 571.988281 C 396.019531 548.210938 385.410156 527.226562 383.285156 523.496094 C 384.535156 517.058594 386.097656 511.117188 387.890625 505.660156 C 387.351562 527.101562 407.253906 535.625 407.464844 535.707031 L 409.320312 536.480469 L 409.609375 534.480469 C 413.21875 509.203125 391.246094 497.488281 391.039062 497.386719 C 391.039062 497.386719 391.582031 496.363281 391.582031 496.363281 L 391.332031 496.363281 C 395.3125 486.757812 400.023438 478.839844 404.921875 472.335938 C 399.648438 499.679688 422.785156 510.390625 423.035156 510.492188 L 424.867188 511.304688 L 425.222656 509.328125 C 429.914062 482.507812 412.84375 469.691406 409.046875 467.191406 C 416.03125 459.105469 423.035156 453.707031 428.558594 450.25 C 417.074219 472.253906 434.332031 487.402344 434.5 487.570312 L 436.125 488.945312 L 436.957031 486.988281 C 445.984375 465.773438 436.582031 450.851562 433.875 447.207031 Z M 401.378906 468.980469 C 390.351562 471.003906 372.21875 477.527344 364.046875 480.589844 C 368.734375 475.089844 380.386719 465.167969 401.378906 468.980469 Z M 364.878906 482.507812 C 372.257812 479.757812 387.578125 474.234375 398.335938 471.734375 C 391.539062 477.003906 379.03125 484.507812 364.878906 482.507812 Z M 383.160156 499.929688 C 374.28125 504.574219 361.796875 514.390625 357.398438 517.910156 C 358.730469 513.097656 363.921875 502.117188 383.160156 499.929688 Z M 359.941406 518.539062 C 365.296875 514.285156 377.074219 505.242188 384.972656 501.324219 C 380.824219 507.242188 371.945312 517.597656 359.941406 518.539062 Z M 380.136719 527.539062 C 378.992188 540.085938 378.324219 559.277344 378.09375 566.675781 C 374.738281 558.984375 368.757812 540.75 380.136719 527.539062 Z M 380.222656 565.214844 C 380.492188 557.089844 381.117188 539.898438 382.160156 528.207031 C 384.933594 534.582031 388.996094 548.796875 380.222656 565.214844 Z M 391.101562 504.554688 C 394.582031 512.765625 401.230469 524.519531 404.796875 530.6875 C 399.3125 527.183594 390.164062 519.101562 391.101562 504.554688 Z M 406.859375 530.101562 C 403.085938 523.601562 395.332031 509.890625 392.207031 501.761719 C 397.167969 505.222656 407.402344 514.328125 406.859375 530.101562 Z M 407.839844 473.878906 C 411.089844 485.695312 417.40625 498.992188 420.679688 505.511719 C 414.925781 501.59375 404.753906 491.925781 407.839844 473.878906 Z M 422.660156 504.824219 C 419.242188 498.074219 412.277344 483.464844 409.277344 471.191406 C 414.21875 474.984375 424.554688 485.382812 422.660156 504.824219 Z M 425.035156 445.769531 C 415.84375 445.101562 397.585938 445.351562 389.851562 445.496094 C 394.875 441.496094 407.546875 434.429688 425.035156 445.769531 Z M 390.558594 447.558594 C 398.085938 447.433594 413.90625 447.226562 423.074219 447.726562 C 415.449219 450.394531 401.460938 453.707031 390.558594 447.558594 Z M 430.765625 452.851562 C 430.640625 464.25 432.414062 475.753906 433.5625 481.964844 C 429.683594 476.984375 424.160156 466.585938 430.765625 452.851562 Z M 435.625 481.609375 C 434.4375 475.253906 432.582031 463.148438 432.894531 451.457031 C 435.769531 456.417969 440.210938 467.253906 435.625 481.609375 Z M 435.625 481.609375 " fill-opacity="1" fill-rule="nonzero"/></svg>