<svg xmlns="http://www.w3.org/2000/svg" xmlns:xlink="http://www.w3.org/1999/xlink" width="1080" zoomAndPan="magnify" viewBox="0 0 810 809.999993" height="1080" preserveAspectRatio="xMidYMid meet" version="1.0"><path fill="#b58934" d="M 599.234375 561.367188 L 407.9375 561.367188 C 403.796875 561.367188 400.449219 557.988281 400.449219 553.882812 C 400.449219 433.898438 349.097656 401.585938 328.726562 393.5 L 316.691406 554.449219 C 316.40625 558.367188 313.15625 561.367188 309.238281 561.367188 L 295.46875 561.367188 C 291.710938 561.367188 288.550781 558.554688 288.046875 554.828125 L 265.558594 381.246094 C 261.925781 376.761719 258.769531 372.246094 255.894531 367.570312 C 208.109375 290.160156 285.550781 225.824219 286.371094 225.195312 C 288.140625 223.773438 290.476562 223.203125 292.65625 223.710938 C 294.867188 224.183594 296.761719 225.636719 297.773438 227.65625 C 330.210938 292.53125 415.421875 294.328125 416.273438 294.328125 C 419.84375 294.363281 422.90625 296.984375 423.539062 300.488281 C 423.824219 302.003906 452.5625 454.109375 560.703125 454.109375 C 576.339844 454.109375 587.359375 462.257812 592.539062 477.703125 C 595.730469 487.242188 596.300781 498.421875 596.394531 507.769531 L 599.171875 507.769531 C 603.308594 507.769531 606.625 511.117188 606.625 515.222656 L 606.625 553.851562 C 606.625 557.988281 603.277344 561.335938 599.140625 561.335938 Z M 415.359375 546.429688 L 591.75 546.429688 L 591.75 522.742188 L 588.972656 522.742188 C 584.835938 522.742188 581.484375 519.394531 581.484375 515.253906 L 581.484375 513.738281 C 581.484375 503.980469 581.484375 491.851562 578.390625 482.503906 C 575.234375 473.09375 569.957031 469.082031 560.734375 469.082031 C 453.164062 469.082031 416.90625 338.515625 410.113281 309.015625 C 389.585938 307.5625 322.753906 298.5 289.183594 242.976562 C 272.886719 259.242188 235.238281 305.574219 268.714844 359.769531 C 271.589844 364.445312 274.78125 368.929688 278.507812 373.445312 C 279.421875 374.519531 279.992188 375.847656 280.148438 377.238281 L 302.351562 546.429688 L 314.542969 383.078125 C 314.703125 380.964844 315.742188 379.035156 317.386719 377.742188 C 319.058594 376.445312 321.175781 375.941406 323.261719 376.257812 C 326.957031 376.890625 412.640625 393.46875 415.359375 546.429688 Z M 415.359375 546.429688 " fill-opacity="1" fill-rule="nonzero"/></svg>